<?xml version="1.0" encoding="utf-8"?>
<!-- Generator: Adobe Illustrator 24.1.1, SVG Export Plug-In . SVG Version: 6.00 Build 0)  -->
<svg version="1.1" id="Слой_1" xmlns="http://www.w3.org/2000/svg" xmlns:xlink="http://www.w3.org/1999/xlink" x="0px" y="0px"
	 viewBox="0 0 490 98" style="enable-background:new 0 0 490 98;" xml:space="preserve">
<style type="text/css">
	.st0{fill:#FF0019;}
	.st1{fill:#FFFFFF;}
</style>
<g id="LOGO_SLOGAN_RU" transform="translate(-64 -39)">
	<g id="Group_10138" transform="translate(64 39)">
		<path id="Path_3712" d="M319.8,35c3.8-0.4,7.2,2.4,7.6,6.2c0,0.1,0,0.2,0,0.4v0.9c0,4.5-2.9,7.1-7.6,7.1h-9.3v7.3h-4V35H319.8z
			 M320,45.7c1.8,0.1,3.3-1.2,3.5-2.9v-0.5c0.2-1.9-1.2-3.6-3.1-3.8h-10v7.3L320,45.7z"/>
		<path id="Path_3713" d="M341.9,57.1c-6.9,0-12.6-4.7-12.6-11.4s5.7-11.4,12.6-11.4s12.6,4.7,12.6,11.4S348.8,57.1,341.9,57.1
			 M341.9,38c-4.3-0.3-8.1,2.9-8.5,7.3v0.5c0,4.5,3.3,7.8,8.5,7.8s8.5-3.3,8.5-7.8S347.1,38,341.9,38"/>
		<path id="Path_3714" d="M370.7,57.1c-7.3,0-12.6-4.7-12.6-11.4s5.5-11.4,12.6-11.4c3.6-0.1,7.2,1,10,3.3l-2.1,3.1
			c-2.2-1.7-4.9-2.7-7.8-2.8c-5.4,0-8.6,3.3-8.6,7.6s3.3,7.8,8.6,7.8c2.9,0,5.7-0.9,7.9-2.6l2.1,3.1C377.9,56,374.3,57.1,370.7,57.1
			"/>
		<path id="Path_3715" d="M414,51.3l-2.4,5.2h-4.3l10.5-21.6h4.1l10.5,21.6h-4.3l-2.4-5.2L414,51.3z M415.7,47.8h8.3l-4.1-8.8
			L415.7,47.8z"/>
		<path id="Path_3716" d="M453.5,56.6v-9.3h-14.2v9.3h-4V35h4v8.8h14.2V35h4v21.6H453.5z"/>
		<path id="Path_3717" d="M463.5,56.6V35h4v10l10.9-10h4.8l-11.1,10.4l11.6,11.2h-5.4l-10.9-10.5v10.5H463.5z"/>
		<path id="Path_3718" d="M398.3,42.8H389v-4.5h15.4v-3.5h-19.5v21.6h13.3c4.7,0,7.9-2.6,7.9-6.9S403.1,42.8,398.3,42.8 M398.7,52.8
			H389v-6.4h9.7c2.4,0,4,1.4,4,3.3C402.6,51.6,401.4,53,398.7,52.8"/>
		<rect id="Rectangle_2047" x="249.3" y="24.5" class="st0" width="43.3" height="22.1"/>
		<rect id="Rectangle_2048" x="249.3" y="45.5" width="43.3" height="21.6"/>
		<rect id="Rectangle_2049" x="256.7" y="44.3" class="st1" width="28.1" height="2.6"/>
		<path id="Path_3738" d="M3.7,13.4H27v6H11.5V24h7.3c2.8-0.2,5.5,0.6,7.8,2.2c1.9,1.5,2.9,3.8,2.8,6.2c0.1,2.6-1,5-3.1,6.6
			c-2.5,1.7-5.4,2.6-8.5,2.4h-14V13.4z M17.2,35.9c1.1,0,2.2-0.3,3.1-0.9c0.7-0.5,1.1-1.4,1-2.2c0-1.9-1.4-2.9-4.1-2.9h-5.7v6H17.2z
			"/>
		<path id="Path_3739" d="M59,13.4L47.4,35c-1.1,2.1-2.6,3.9-4.5,5.4c-1.7,1.2-3.8,1.8-5.9,1.7c-1.7,0-3.4-0.3-5-1l1.9-5.9
			c0.9,0.3,1.8,0.5,2.8,0.5c0.7,0,1.4-0.2,2.1-0.5c0.7-0.4,1.3-1,1.7-1.7l-10.7-20h8.3l6.6,13.5l6.7-13.5H59z"/>
		<path id="Path_3740" d="M88.2,35.2v11.9h-7.3v-5.7H63v5.7h-7.3V35.2h1c1.7,0,2.8-1.2,3.5-3.5c0.8-3.2,1.2-6.4,1.2-9.7l0.3-8.6
			h22.6v21.8H88.2z M67.6,30.3c-0.2,1.7-0.8,3.4-1.7,4.8h10.5V19.8h-7.9v3.1C68.4,25.4,68.1,27.9,67.6,30.3z"/>
		<path id="Path_3741" d="M116.7,13.4L105.1,35c-1.1,2.1-2.6,3.9-4.5,5.4c-1.7,1.2-3.8,1.8-5.9,1.7c-1.7,0-3.4-0.3-5-1l1.9-5.9
			c0.9,0.3,1.8,0.5,2.8,0.5c0.7,0,1.4-0.2,2.1-0.5c0.7-0.4,1.3-1,1.7-1.7l-10.7-20h8.3l6.6,13.5l6.7-13.5H116.7z"/>
		<path id="Path_3742" d="M155.4,35.2V13.4h-7.9v21.8h-7.1V13.4h-7.9v21.8h-7.3V13.4h-7.8v28h34.4v5.7h7.3V35.2H155.4z"/>
		<path id="Path_3743" d="M184,35.4v6h-22.4v-28h21.9v6h-14.2v4.7h12.4V30h-12.4v5.2L184,35.4z"/>
		<path id="Path_3744" d="M209.4,35.4v6h-22.6v-28h21.9v6h-14.2v4.7H207V30h-12.4v5.2L209.4,35.4z"/>
		<path id="Path_3745" d="M213.7,24.8h20v4.5h-20V24.8z"/>
		<path id="Path_3746" d="M96.5,50.2c2.2,1.2,4,3,5.2,5.2c2.6,4.7,2.6,10.4,0,15c-1.2,2.2-3,4-5.2,5.2c-2.3,1.2-5,1.9-7.6,1.9
			c-2.4,0-4.7-0.5-6.9-1.4c-2-0.9-3.8-2.2-5.2-4l5-4.5c1.6,2.1,4.1,3.3,6.7,3.3c1.5,0,3.1-0.5,4.3-1.4c1.2-1,2.1-2.3,2.4-3.8H85.1
			v-5.9h10c-0.4-1.5-1.2-2.7-2.4-3.6c-1.3-0.9-2.8-1.4-4.3-1.4c-2.6,0-5.1,1.2-6.7,3.3l-5-4.5c1.4-1.7,3.1-3.1,5.2-4
			c2.2-0.9,4.5-1.4,6.9-1.4C91.4,48.3,94.1,48.9,96.5,50.2z"/>
		<path id="Path_3747" d="M128.4,55.2h-8.6V77H112V55.2h-8.6V49h25V55.2z"/>
		<path id="Path_3748" d="M135.6,75.6c-7-3.6-9.7-12.2-6.1-19.2c0,0,0-0.1,0-0.1c1.4-2.6,3.5-4.7,6-6c5-2.6,10.9-2.6,15.9,0
			c7,3.6,9.7,12.2,6.1,19.2c0,0,0,0.1,0,0.1c-1.4,2.6-3.5,4.7-6,6C146.5,78,140.6,78,135.6,75.6z M147.3,69.9
			c1.1-0.7,2.1-1.6,2.8-2.8c1.4-2.6,1.4-5.7,0-8.3c-0.6-1.2-1.6-2.2-2.8-2.8c-2.3-1.4-5.3-1.4-7.6,0c-1.1,0.7-2.1,1.6-2.8,2.8
			c-1.4,2.6-1.4,5.7,0,8.3c0.6,1.2,1.6,2.1,2.8,2.8C142.1,71.3,145,71.3,147.3,69.9z"/>
		<path id="Path_3749" d="M194.3,64.7c0.9,1.2,1.4,2.7,1.4,4.1c0,2.3-1.1,4.5-2.9,5.9c-2.5,1.6-5.4,2.4-8.3,2.2h-14.3V48.8h13.6
			c2.7-0.2,5.4,0.5,7.8,1.9c1.9,1.2,3,3.3,2.8,5.5c0,1.3-0.4,2.5-1,3.6c-0.7,1-1.7,1.9-2.8,2.4C192,62.6,193.3,63.5,194.3,64.7z
			 M177.9,60h5c2.2,0,3.3-0.9,3.3-2.8c0-1.9-1.2-2.8-3.3-2.8h-5V60z M187.5,68.3c0-1.9-1.2-2.8-3.5-2.8h-6.2v5.7h6.2
			C186.3,71.3,187.5,70.2,187.5,68.3L187.5,68.3z"/>
		<path id="Path_3750" d="M220.2,60c1.9,1.8,2.9,4.3,2.8,6.9c0.1,2.8-1,5.5-3.1,7.4c-2.5,1.9-5.5,2.8-8.6,2.6h-13.3V48.8h7.8v9h6.6
			C215.1,57.7,217.9,58.5,220.2,60z M213.8,70c0.8-0.8,1.3-1.9,1.2-3.1c0-2.4-1.4-3.6-4.3-3.6h-4.8v7.8h5
			C212,71.1,213,70.7,213.8,70z M226.1,48.8h7.8V77h-7.8V48.8z"/>
		<path id="title" d="M402.6,87.6c-2.1,0-3.5-1.2-3.5-3v-4.1h1.3v4c0,1.3,0.8,2,2.2,2s2.2-0.7,2.2-2v-4h1.3v4.1
			C406.1,86.4,404.7,87.6,402.6,87.6z M393.5,87.6c-2.1,0.1-3.9-1.4-4.1-3.5c0-0.1,0-0.1,0-0.2c0.2-2.2,2.2-3.9,4.5-3.6
			c1.9,0.2,3.5,1.7,3.6,3.6c0,1-0.4,2-1.2,2.7C395.6,87.3,394.6,87.6,393.5,87.6L393.5,87.6z M393.5,81.4c-1.4-0.1-2.6,0.9-2.7,2.3
			c-0.1,1.4,0.9,2.6,2.3,2.7c0.1,0,0.2,0,0.4,0c1.4,0.1,2.6-0.9,2.7-2.3c0.1-1.4-0.9-2.6-2.3-2.7C393.8,81.4,393.6,81.4,393.5,81.4z
			 M376.4,87.6c-1.1,0-2.1-0.3-2.9-1c-0.8-0.7-1.2-1.6-1.2-2.7c0-2.1,1.7-3.7,4.1-3.7c1.2,0,2.3,0.3,3.3,1l-0.7,1
			c-0.7-0.6-1.6-0.8-2.5-0.8h-0.1c-1.4-0.1-2.5,0.9-2.7,2.2c0,0.1,0,0.1,0,0.2c0,1.4,1.1,2.5,2.5,2.5c0.1,0,0.2,0,0.3,0
			c0.7,0,1.4-0.1,2-0.4v-2h1.3v2.7C378.7,87.3,377.6,87.6,376.4,87.6z M261.5,87.6c-1,0-2.1-0.3-2.9-1c-0.8-0.7-1.2-1.6-1.2-2.7
			c0.1-2.1,1.8-3.7,3.9-3.7c0.1,0,0.1,0,0.2,0c2.1-0.1,3.9,1.4,4,3.5c0,0.1,0,0.1,0,0.2c0,2.1-1.7,3.7-3.8,3.7
			C261.6,87.6,261.6,87.6,261.5,87.6z M261.5,81.4c-1.4-0.1-2.6,0.9-2.7,2.3c-0.1,1.4,0.9,2.6,2.3,2.7c0.1,0,0.3,0,0.4,0
			c1.4,0.1,2.6-0.9,2.7-2.3s-0.9-2.6-2.3-2.7C261.8,81.4,261.6,81.4,261.5,81.4z M308.3,87.6c-1.1,0-2.1-0.3-2.9-1
			c-0.8-0.7-1.2-1.6-1.2-2.7c0-2.1,1.7-3.7,4.1-3.7c1.2,0,2.3,0.3,3.2,1l-0.7,1c-0.7-0.6-1.6-0.9-2.5-0.8h-0.1
			c-1.3-0.1-2.5,0.9-2.7,2.2c0,0.1,0,0.1,0,0.2c0,1.4,1.1,2.5,2.5,2.5c0.1,0,0.2,0,0.3,0c0.7,0,1.4-0.1,2-0.4v-2h1.3v2.7
			C310.6,87.3,309.5,87.6,308.3,87.6z M270.8,87.6c-1.1,0-2.1-0.3-2.9-1c-0.8-0.7-1.2-1.6-1.2-2.7c0-2.1,1.7-3.7,4.1-3.7
			c1.2,0,2.3,0.3,3.2,1l-0.7,1c-0.7-0.6-1.6-0.9-2.5-0.8c-1.4-0.1-2.6,0.9-2.7,2.2c0,0.1,0,0.1,0,0.2c0,1.4,1.1,2.5,2.5,2.5
			c0.1,0,0.2,0,0.3,0c0.9,0,1.8-0.3,2.6-0.8l0.7,1C273.1,87.3,272,87.6,270.8,87.6z M252.9,87.6c-1.3,0-2.5-0.3-3.6-0.9l0.5-1.1
			c1,0.5,2,0.8,3.1,0.8c1.3,0,2.1-0.4,2.1-1c0-0.6-1-0.8-2.2-1c-1.6-0.3-3.4-0.6-3.4-2.1c0-1.2,1.2-2,3.2-2c1.1,0,2.2,0.3,3.2,0.8
			l-0.5,1c-0.9-0.4-1.8-0.6-2.7-0.6c-1.2,0-1.9,0.3-1.9,0.8c0,0.6,0.9,0.7,2,0.9c1.6,0.3,3.6,0.6,3.6,2.3
			C256.3,86.7,255,87.6,252.9,87.6z M382.8,87.4h-1.3v-6.9h4.5c1.2-0.1,2.3,0.7,2.4,1.9c0,0.1,0,0.2,0,0.3c0,1.1-0.9,2.1-2,2.1
			l2.1,2.6h-1.6l-2-2.6h-2.1L382.8,87.4L382.8,87.4z M382.8,81.6v2.1h3.1c0.8,0,1.3-0.4,1.3-1c0-0.6-0.4-1-0.9-1.1
			c-0.1,0-0.1,0-0.2,0L382.8,81.6z M409.2,87.4h-1.3v-6.9h4.3c1.3-0.1,2.4,0.8,2.5,2.1c0,0.1,0,0.2,0,0.3c0,1.2-0.9,2.2-2.1,2.3
			c-0.1,0-0.3,0-0.4,0h-3V87.4L409.2,87.4z M409.2,81.6L409.2,81.6v2.3h3.1c0.6,0,1.1-0.4,1.1-1c0,0,0-0.1,0-0.1
			c0.1-0.6-0.4-1.2-1-1.2c0,0-0.1,0-0.1,0L409.2,81.6L409.2,81.6z M346.9,87.4h-1.4l3.4-6.9h1.4l3.4,6.9h-1.4l-0.8-1.7h-3.8
			L346.9,87.4L346.9,87.4z M349.6,81.8l-1.3,2.8h2.7L349.6,81.8z M339.4,87.4h-1.3v-6.9h4.5c1.2-0.1,2.3,0.7,2.4,1.9
			c0,0.1,0,0.2,0,0.3c0,1.1-0.9,2.1-2,2.1l2.1,2.6h-1.6l-2-2.6h-2.1V87.4L339.4,87.4z M339.4,81.6L339.4,81.6v2.1h3
			c0.8,0,1.3-0.4,1.3-1c0-0.6-0.4-1-0.9-1.1c-0.1,0-0.1,0-0.2,0H339.4z M322.6,87.4h-1.3v-6.9h1.3l4.5,5.2l0,0
			c-0.1-1.4-0.1-2.4-0.1-3.4v-1.8h1.3v6.9h-1.3l-4.5-5.2l0,0c0,1,0,2.8,0,3.4L322.6,87.4L322.6,87.4z M368.1,87.4h-6.6v-6.9h6.3v1.1
			h-5v1.7h3.9v1.1h-3.9v1.8h5.3V87.4L368.1,87.4z M360.5,87.4h-5.9v-6.9h1.3v5.8h4.6L360.5,87.4L360.5,87.4z M336.8,87.4h-6.6v-6.9
			h6.3v1.1h-5.1v1.7h3.9v1.1h-3.9v1.8h5.3L336.8,87.4L336.8,87.4z M319.9,87.4h-6.6v-6.9h6.3v1.1h-5.1v1.7h3.9v1.1h-3.9v1.8h5.3
			L319.9,87.4L319.9,87.4z M300.3,87.4h-6.6v-6.9h6.3v1.1h-5v1.7h3.9v1.1H295v1.8h5.3L300.3,87.4L300.3,87.4z M288.6,87.4v-5.8h-2.8
			v-1.1h7v1.1h-2.8v5.8H288.6L288.6,87.4z M285.2,87.4h-6.6v-6.9h6.3v1.1h-5v1.7h3.9v1.1h-3.9v1.8h5.3L285.2,87.4L285.2,87.4z
			 M275.5,87.4v-6.9h1.3v6.9L275.5,87.4L275.5,87.4z"/>
	</g>
</g>
</svg>
