<?xml version="1.0" encoding="utf-8"?>
<!-- Generator: Adobe Illustrator 24.1.1, SVG Export Plug-In . SVG Version: 6.00 Build 0)  -->
<svg version="1.1" id="Слой_1" xmlns="http://www.w3.org/2000/svg" xmlns:xlink="http://www.w3.org/1999/xlink" x="0px" y="0px"
	 viewBox="0 0 892 65" style="enable-background:new 0 0 892 65;" xml:space="preserve">
<style type="text/css">
	.st0{fill:#F2F2F2;}
	.st1{fill:#D1D1D1;}
</style>
<g>
	<g>
		<line class="st0" x1="890.6" y1="64.9" x2="890.6" y2="14.2"/>
		<rect x="889.8" y="14.2" class="st0" width="1.6" height="50.7"/>
	</g>
	<g>
		<line class="st0" x1="882.6" y1="64.9" x2="882.6" y2="26"/>
		<rect x="881.8" y="26" class="st0" width="1.6" height="38.9"/>
	</g>
	<g>
		<line class="st0" x1="874.6" y1="64.9" x2="874.6" y2="26"/>
		<rect x="873.8" y="26" class="st0" width="1.6" height="38.9"/>
	</g>
	<g>
		<line class="st0" x1="866.5" y1="64.9" x2="866.5" y2="26"/>
		<rect x="865.7" y="26" class="st0" width="1.6" height="38.9"/>
	</g>
	<g>
		<line class="st0" x1="858.5" y1="65.1" x2="858.5" y2="26.2"/>
		<rect x="857.7" y="26.2" class="st0" width="1.6" height="38.9"/>
	</g>
	<g>
		<line class="st1" x1="850.5" y1="65.1" x2="850.5" y2="1.2"/>
		<rect x="849.7" y="1.2" class="st1" width="1.6" height="63.8"/>
	</g>
	<g>
		<line class="st0" x1="801.7" y1="64.9" x2="801.7" y2="26"/>
		<rect x="800.9" y="26" class="st0" width="1.6" height="38.9"/>
	</g>
	<g>
		<line class="st0" x1="793.7" y1="64.9" x2="793.7" y2="26"/>
		<rect x="792.9" y="26" class="st0" width="1.6" height="38.9"/>
	</g>
	<g>
		<line class="st0" x1="785.7" y1="64.9" x2="785.7" y2="26"/>
		<rect x="784.9" y="26" class="st0" width="1.6" height="38.9"/>
	</g>
	<g>
		<line class="st0" x1="777.6" y1="65.1" x2="777.6" y2="26.2"/>
		<rect x="776.8" y="26.2" class="st0" width="1.6" height="38.9"/>
	</g>
	<g>
		<line class="st1" x1="769.6" y1="65.1" x2="769.6" y2="1.2"/>
		<rect x="768.8" y="1.2" class="st1" width="1.6" height="63.8"/>
	</g>
	<g>
		<line class="st0" x1="841.9" y1="64.9" x2="841.9" y2="26"/>
		<rect x="841.1" y="26" class="st0" width="1.6" height="38.9"/>
	</g>
	<g>
		<line class="st0" x1="833.8" y1="64.9" x2="833.8" y2="26"/>
		<rect x="833" y="26" class="st0" width="1.6" height="38.9"/>
	</g>
	<g>
		<line class="st0" x1="825.8" y1="64.9" x2="825.8" y2="26"/>
		<rect x="825" y="26" class="st0" width="1.6" height="38.9"/>
	</g>
	<g>
		<line class="st0" x1="817.8" y1="65" x2="817.8" y2="26.1"/>
		<rect x="817" y="26.1" class="st0" width="1.6" height="38.9"/>
	</g>
	<g>
		<line class="st0" x1="809.8" y1="65" x2="809.8" y2="14.2"/>
		<rect x="808.9" y="14.2" class="st0" width="1.6" height="50.8"/>
	</g>
	<g>
		<line class="st0" x1="33.2" y1="64.9" x2="33.2" y2="26"/>
		<rect x="32.4" y="26" class="st0" width="1.6" height="38.9"/>
	</g>
	<g>
		<line class="st0" x1="25.2" y1="64.9" x2="25.2" y2="26"/>
		<rect x="24.4" y="26" class="st0" width="1.6" height="38.9"/>
	</g>
	<g>
		<line class="st0" x1="17.1" y1="64.9" x2="17.1" y2="26"/>
		<rect x="16.3" y="26" class="st0" width="1.6" height="38.9"/>
	</g>
	<g>
		<line class="st0" x1="9.1" y1="65" x2="9.1" y2="26.1"/>
		<rect x="8.3" y="26.1" class="st0" width="1.6" height="38.9"/>
	</g>
	<g>
		<line class="st0" x1="1.1" y1="65" x2="1.1" y2="14.2"/>
		<rect x="0.3" y="14.2" class="st0" width="1.6" height="50.8"/>
	</g>
	<g>
		<line class="st0" x1="720.9" y1="64.9" x2="720.9" y2="26"/>
		<rect x="720.1" y="26" class="st0" width="1.6" height="38.9"/>
	</g>
	<g>
		<line class="st0" x1="712.8" y1="64.9" x2="712.8" y2="26"/>
		<rect x="712" y="26" class="st0" width="1.6" height="38.9"/>
	</g>
	<g>
		<line class="st0" x1="704.8" y1="64.9" x2="704.8" y2="26"/>
		<rect x="704" y="26" class="st0" width="1.6" height="38.9"/>
	</g>
	<g>
		<line class="st0" x1="696.8" y1="65.1" x2="696.8" y2="26.2"/>
		<rect x="696" y="26.2" class="st0" width="1.6" height="38.9"/>
	</g>
	<g>
		<line class="st1" x1="688.7" y1="65.1" x2="688.7" y2="1.2"/>
		<rect x="687.9" y="1.2" class="st1" width="1.6" height="63.8"/>
	</g>
	<g>
		<line class="st0" x1="761" y1="64.9" x2="761" y2="26"/>
		<rect x="760.2" y="26" class="st0" width="1.6" height="38.9"/>
	</g>
	<g>
		<line class="st0" x1="753" y1="64.9" x2="753" y2="26"/>
		<rect x="752.2" y="26" class="st0" width="1.6" height="38.9"/>
	</g>
	<g>
		<line class="st0" x1="744.9" y1="64.9" x2="744.9" y2="26"/>
		<rect x="744.1" y="26" class="st0" width="1.6" height="38.9"/>
	</g>
	<g>
		<line class="st0" x1="736.9" y1="65" x2="736.9" y2="26.1"/>
		<rect x="736.1" y="26.1" class="st0" width="1.6" height="38.9"/>
	</g>
	<g>
		<line class="st0" x1="728.9" y1="65" x2="728.9" y2="14.2"/>
		<rect x="728.1" y="14.2" class="st0" width="1.6" height="50.8"/>
	</g>
	<g>
		<line class="st0" x1="640" y1="64.9" x2="640" y2="26"/>
		<rect x="639.2" y="26" class="st0" width="1.6" height="38.9"/>
	</g>
	<g>
		<line class="st0" x1="632" y1="64.9" x2="632" y2="26"/>
		<rect x="631.2" y="26" class="st0" width="1.6" height="38.9"/>
	</g>
	<g>
		<line class="st0" x1="623.9" y1="64.9" x2="623.9" y2="26"/>
		<rect x="623.1" y="26" class="st0" width="1.6" height="38.9"/>
	</g>
	<g>
		<line class="st0" x1="615.9" y1="65.1" x2="615.9" y2="26.2"/>
		<rect x="615.1" y="26.2" class="st0" width="1.6" height="38.9"/>
	</g>
	<g>
		<line class="st1" x1="607.9" y1="65.1" x2="607.9" y2="1.2"/>
		<rect x="607.1" y="1.2" class="st1" width="1.6" height="63.8"/>
	</g>
	<g>
		<line class="st0" x1="680.1" y1="64.9" x2="680.1" y2="26"/>
		<rect x="679.3" y="26" class="st0" width="1.6" height="38.9"/>
	</g>
	<g>
		<line class="st0" x1="672.1" y1="64.9" x2="672.1" y2="26"/>
		<rect x="671.3" y="26" class="st0" width="1.6" height="38.9"/>
	</g>
	<g>
		<line class="st0" x1="664.1" y1="64.9" x2="664.1" y2="26"/>
		<rect x="663.3" y="26" class="st0" width="1.6" height="38.9"/>
	</g>
	<g>
		<line class="st0" x1="656.1" y1="65" x2="656.1" y2="26.1"/>
		<rect x="655.2" y="26.1" class="st0" width="1.6" height="38.9"/>
	</g>
	<g>
		<line class="st0" x1="648" y1="65" x2="648" y2="14.2"/>
		<rect x="647.2" y="14.2" class="st0" width="1.6" height="50.8"/>
	</g>
	<g>
		<line class="st0" x1="559.1" y1="64.9" x2="559.1" y2="26"/>
		<rect x="558.3" y="26" class="st0" width="1.6" height="38.9"/>
	</g>
	<g>
		<line class="st0" x1="551.1" y1="64.9" x2="551.1" y2="26"/>
		<rect x="550.3" y="26" class="st0" width="1.6" height="38.9"/>
	</g>
	<g>
		<line class="st0" x1="543.1" y1="64.9" x2="543.1" y2="26"/>
		<rect x="542.3" y="26" class="st0" width="1.6" height="38.9"/>
	</g>
	<g>
		<line class="st0" x1="535" y1="65.1" x2="535" y2="26.2"/>
		<rect x="534.2" y="26.2" class="st0" width="1.6" height="38.9"/>
	</g>
	<g>
		<line class="st1" x1="527" y1="65.1" x2="527" y2="1.2"/>
		<rect x="526.2" y="1.2" class="st1" width="1.6" height="63.8"/>
	</g>
	<g>
		<line class="st0" x1="599.3" y1="64.9" x2="599.3" y2="26"/>
		<rect x="598.5" y="26" class="st0" width="1.6" height="38.9"/>
	</g>
	<g>
		<line class="st0" x1="591.2" y1="64.9" x2="591.2" y2="26"/>
		<rect x="590.4" y="26" class="st0" width="1.6" height="38.9"/>
	</g>
	<g>
		<line class="st0" x1="583.2" y1="64.9" x2="583.2" y2="26"/>
		<rect x="582.4" y="26" class="st0" width="1.6" height="38.9"/>
	</g>
	<g>
		<line class="st0" x1="575.2" y1="65" x2="575.2" y2="26.1"/>
		<rect x="574.4" y="26.1" class="st0" width="1.6" height="38.9"/>
	</g>
	<g>
		<line class="st0" x1="567.2" y1="65" x2="567.2" y2="14.2"/>
		<rect x="566.3" y="14.2" class="st0" width="1.6" height="50.8"/>
	</g>
	<g>
		<line class="st0" x1="478.3" y1="64.9" x2="478.3" y2="26"/>
		<rect x="477.5" y="26" class="st0" width="1.6" height="38.9"/>
	</g>
	<g>
		<line class="st0" x1="470.2" y1="64.9" x2="470.2" y2="26"/>
		<rect x="469.4" y="26" class="st0" width="1.6" height="38.9"/>
	</g>
	<g>
		<line class="st0" x1="462.2" y1="64.9" x2="462.2" y2="26"/>
		<rect x="461.4" y="26" class="st0" width="1.6" height="38.9"/>
	</g>
	<g>
		<line class="st0" x1="454.2" y1="65.1" x2="454.2" y2="26.2"/>
		<rect x="453.4" y="26.2" class="st0" width="1.6" height="38.9"/>
	</g>
	<g>
		<line class="st1" x1="446.1" y1="65.1" x2="446.1" y2="1.2"/>
		<rect x="445.3" y="1.2" class="st1" width="1.6" height="63.8"/>
	</g>
	<g>
		<line class="st0" x1="518.4" y1="64.9" x2="518.4" y2="26"/>
		<rect x="517.6" y="26" class="st0" width="1.6" height="38.9"/>
	</g>
	<g>
		<line class="st0" x1="510.4" y1="64.9" x2="510.4" y2="26"/>
		<rect x="509.6" y="26" class="st0" width="1.6" height="38.9"/>
	</g>
	<g>
		<line class="st0" x1="502.3" y1="64.9" x2="502.3" y2="26"/>
		<rect x="501.5" y="26" class="st0" width="1.6" height="38.9"/>
	</g>
	<g>
		<line class="st0" x1="494.3" y1="65" x2="494.3" y2="26.1"/>
		<rect x="493.5" y="26.1" class="st0" width="1.6" height="38.9"/>
	</g>
	<g>
		<line class="st0" x1="486.3" y1="65" x2="486.3" y2="14.2"/>
		<rect x="485.5" y="14.2" class="st0" width="1.6" height="50.8"/>
	</g>
	<g>
		<line class="st0" x1="397.4" y1="64.9" x2="397.4" y2="26"/>
		<rect x="396.6" y="26" class="st0" width="1.6" height="38.9"/>
	</g>
	<g>
		<line class="st0" x1="389.4" y1="64.9" x2="389.4" y2="26"/>
		<rect x="388.6" y="26" class="st0" width="1.6" height="38.9"/>
	</g>
	<g>
		<line class="st0" x1="381.3" y1="64.9" x2="381.3" y2="26"/>
		<rect x="380.5" y="26" class="st0" width="1.6" height="38.9"/>
	</g>
	<g>
		<line class="st0" x1="373.3" y1="65.1" x2="373.3" y2="26.2"/>
		<rect x="372.5" y="26.2" class="st0" width="1.6" height="38.9"/>
	</g>
	<g>
		<line class="st1" x1="365.3" y1="65.1" x2="365.3" y2="1.2"/>
		<rect x="364.5" y="1.2" class="st1" width="1.6" height="63.8"/>
	</g>
	<g>
		<line class="st0" x1="437.5" y1="64.9" x2="437.5" y2="26"/>
		<rect x="436.7" y="26" class="st0" width="1.6" height="38.9"/>
	</g>
	<g>
		<line class="st0" x1="429.5" y1="64.9" x2="429.5" y2="26"/>
		<rect x="428.7" y="26" class="st0" width="1.6" height="38.9"/>
	</g>
	<g>
		<line class="st0" x1="421.5" y1="64.9" x2="421.5" y2="26"/>
		<rect x="420.7" y="26" class="st0" width="1.6" height="38.9"/>
	</g>
	<g>
		<line class="st0" x1="413.5" y1="65" x2="413.5" y2="26.1"/>
		<rect x="412.6" y="26.1" class="st0" width="1.6" height="38.9"/>
	</g>
	<g>
		<line class="st0" x1="405.4" y1="65" x2="405.4" y2="14.2"/>
		<rect x="404.6" y="14.2" class="st0" width="1.6" height="50.8"/>
	</g>
	<g>
		<line class="st0" x1="316.5" y1="64.9" x2="316.5" y2="26"/>
		<rect x="315.7" y="26" class="st0" width="1.6" height="38.9"/>
	</g>
	<g>
		<line class="st0" x1="308.5" y1="64.9" x2="308.5" y2="26"/>
		<rect x="307.7" y="26" class="st0" width="1.6" height="38.9"/>
	</g>
	<g>
		<line class="st0" x1="300.5" y1="64.9" x2="300.5" y2="26"/>
		<rect x="299.7" y="26" class="st0" width="1.6" height="38.9"/>
	</g>
	<g>
		<line class="st0" x1="292.4" y1="65.1" x2="292.4" y2="26.2"/>
		<rect x="291.6" y="26.2" class="st0" width="1.6" height="38.9"/>
	</g>
	<g>
		<line class="st1" x1="284.4" y1="65.1" x2="284.4" y2="1.2"/>
		<rect x="283.6" y="1.2" class="st1" width="1.6" height="63.8"/>
	</g>
	<g>
		<line class="st0" x1="356.7" y1="64.9" x2="356.7" y2="26"/>
		<rect x="355.9" y="26" class="st0" width="1.6" height="38.9"/>
	</g>
	<g>
		<line class="st0" x1="348.6" y1="64.9" x2="348.6" y2="26"/>
		<rect x="347.8" y="26" class="st0" width="1.6" height="38.9"/>
	</g>
	<g>
		<line class="st0" x1="340.6" y1="64.9" x2="340.6" y2="26"/>
		<rect x="339.8" y="26" class="st0" width="1.6" height="38.9"/>
	</g>
	<g>
		<line class="st0" x1="332.6" y1="65" x2="332.6" y2="26.1"/>
		<rect x="331.8" y="26.1" class="st0" width="1.6" height="38.9"/>
	</g>
	<g>
		<line class="st0" x1="324.6" y1="65" x2="324.6" y2="14.2"/>
		<rect x="323.7" y="14.2" class="st0" width="1.6" height="50.8"/>
	</g>
	<g>
		<line class="st0" x1="235.7" y1="64.9" x2="235.7" y2="26"/>
		<rect x="234.9" y="26" class="st0" width="1.6" height="38.9"/>
	</g>
	<g>
		<line class="st0" x1="227.6" y1="64.9" x2="227.6" y2="26"/>
		<rect x="226.8" y="26" class="st0" width="1.6" height="38.9"/>
	</g>
	<g>
		<line class="st0" x1="219.6" y1="64.9" x2="219.6" y2="26"/>
		<rect x="218.8" y="26" class="st0" width="1.6" height="38.9"/>
	</g>
	<g>
		<line class="st0" x1="211.6" y1="65.1" x2="211.6" y2="26.2"/>
		<rect x="210.8" y="26.2" class="st0" width="1.6" height="38.9"/>
	</g>
	<g>
		<line class="st1" x1="203.6" y1="65.1" x2="203.6" y2="1.2"/>
		<rect x="202.7" y="1.2" class="st1" width="1.6" height="63.8"/>
	</g>
	<g>
		<line class="st0" x1="275.8" y1="64.9" x2="275.8" y2="26"/>
		<rect x="275" y="26" class="st0" width="1.6" height="38.9"/>
	</g>
	<g>
		<line class="st0" x1="267.8" y1="64.9" x2="267.8" y2="26"/>
		<rect x="267" y="26" class="st0" width="1.6" height="38.9"/>
	</g>
	<g>
		<line class="st0" x1="259.7" y1="64.9" x2="259.7" y2="26"/>
		<rect x="258.9" y="26" class="st0" width="1.6" height="38.9"/>
	</g>
	<g>
		<line class="st0" x1="251.7" y1="65" x2="251.7" y2="26.1"/>
		<rect x="250.9" y="26.1" class="st0" width="1.6" height="38.9"/>
	</g>
	<g>
		<line class="st0" x1="243.7" y1="65" x2="243.7" y2="14.2"/>
		<rect x="242.9" y="14.2" class="st0" width="1.6" height="50.8"/>
	</g>
	<g>
		<line class="st0" x1="154.8" y1="64.9" x2="154.8" y2="26"/>
		<rect x="154" y="26" class="st0" width="1.6" height="38.9"/>
	</g>
	<g>
		<line class="st0" x1="146.8" y1="64.9" x2="146.8" y2="26"/>
		<rect x="146" y="26" class="st0" width="1.6" height="38.9"/>
	</g>
	<g>
		<line class="st0" x1="138.7" y1="64.9" x2="138.7" y2="26"/>
		<rect x="137.9" y="26" class="st0" width="1.6" height="38.9"/>
	</g>
	<g>
		<line class="st0" x1="130.7" y1="65.1" x2="130.7" y2="26.2"/>
		<rect x="129.9" y="26.2" class="st0" width="1.6" height="38.9"/>
	</g>
	<g>
		<line class="st1" x1="122.7" y1="65.1" x2="122.7" y2="1.2"/>
		<rect x="121.9" y="1.2" class="st1" width="1.6" height="63.8"/>
	</g>
	<g>
		<line class="st0" x1="194.9" y1="64.9" x2="194.9" y2="26"/>
		<rect x="194.1" y="26" class="st0" width="1.6" height="38.9"/>
	</g>
	<g>
		<line class="st0" x1="186.9" y1="64.9" x2="186.9" y2="26"/>
		<rect x="186.1" y="26" class="st0" width="1.6" height="38.9"/>
	</g>
	<g>
		<line class="st0" x1="178.9" y1="64.9" x2="178.9" y2="26"/>
		<rect x="178.1" y="26" class="st0" width="1.6" height="38.9"/>
	</g>
	<g>
		<line class="st0" x1="170.9" y1="65" x2="170.9" y2="26.1"/>
		<rect x="170" y="26.1" class="st0" width="1.6" height="38.9"/>
	</g>
	<g>
		<line class="st0" x1="162.8" y1="65" x2="162.8" y2="14.2"/>
		<rect x="162" y="14.2" class="st0" width="1.6" height="50.8"/>
	</g>
	<g>
		<line class="st0" x1="73.9" y1="64.9" x2="73.9" y2="26"/>
		<rect x="73.1" y="26" class="st0" width="1.6" height="38.9"/>
	</g>
	<g>
		<line class="st0" x1="65.9" y1="64.9" x2="65.9" y2="26"/>
		<rect x="65.1" y="26" class="st0" width="1.6" height="38.9"/>
	</g>
	<g>
		<line class="st0" x1="57.9" y1="64.9" x2="57.9" y2="26"/>
		<rect x="57.1" y="26" class="st0" width="1.6" height="38.9"/>
	</g>
	<g>
		<line class="st0" x1="49.8" y1="65.1" x2="49.8" y2="26.2"/>
		<rect x="49" y="26.2" class="st0" width="1.6" height="38.9"/>
	</g>
	<g>
		<line class="st1" x1="41.8" y1="65.1" x2="41.8" y2="1.2"/>
		<rect x="41" y="1.2" class="st1" width="1.6" height="63.8"/>
	</g>
	<g>
		<line class="st0" x1="114.1" y1="64.9" x2="114.1" y2="26"/>
		<rect x="113.3" y="26" class="st0" width="1.6" height="38.9"/>
	</g>
	<g>
		<line class="st0" x1="106" y1="64.9" x2="106" y2="26"/>
		<rect x="105.2" y="26" class="st0" width="1.6" height="38.9"/>
	</g>
	<g>
		<line class="st0" x1="98" y1="64.9" x2="98" y2="26"/>
		<rect x="97.2" y="26" class="st0" width="1.6" height="38.9"/>
	</g>
	<g>
		<line class="st0" x1="90" y1="65" x2="90" y2="26.1"/>
		<rect x="89.2" y="26.1" class="st0" width="1.6" height="38.9"/>
	</g>
	<g>
		<line class="st0" x1="82" y1="65" x2="82" y2="14.2"/>
		<rect x="81.2" y="14.2" class="st0" width="1.6" height="50.8"/>
	</g>
</g>
</svg>
