<?xml version="1.0" encoding="utf-8"?>
<!-- Generator: Adobe Illustrator 20.1.0, SVG Export Plug-In . SVG Version: 6.00 Build 0)  -->
<svg version="1.1" id="Слой_1" xmlns="http://www.w3.org/2000/svg" xmlns:xlink="http://www.w3.org/1999/xlink" x="0px" y="0px"
	 viewBox="0 0 117.7 129" style="enable-background:new 0 0 117.7 129;" xml:space="preserve">
<style type="text/css">
	.st0{fill:#E60028;}
</style>
<g id="Filledotuline">
	<path class="st0" d="M15.8,79.2c-3.7,0-6.8,3-6.8,6.8c0,3.7,3,6.8,6.8,6.8s6.8-3,6.8-6.8C22.6,82.2,19.6,79.2,15.8,79.2z
		 M15.8,88.3c-1.2,0-2.3-1-2.3-2.3c0-1.2,1-2.3,2.3-2.3s2.3,1,2.3,2.3C18.1,87.2,17.1,88.3,15.8,88.3z"/>
	<path class="st0" d="M101.8,79.2c-3.7,0-6.8,3-6.8,6.8c0,3.7,3,6.8,6.8,6.8c3.7,0,6.8-3,6.8-6.8C108.6,82.2,105.6,79.2,101.8,79.2z
		 M101.8,88.3c-1.2,0-2.3-1-2.3-2.3c0-1.2,1-2.3,2.3-2.3s2.3,1,2.3,2.3C104.1,87.2,103.1,88.3,101.8,88.3z"/>
	<path class="st0" d="M117.7,86c0-8.7-7.1-15.8-15.8-15.8c-0.1,0-0.2,0-0.3,0C93,70.3,86,77.5,86,86.2v7.6
		c-6.2-1.7-15.2-3.3-27.2-3.3s-21,1.6-27.2,3.3V86c0-8.7-7.1-15.8-15.8-15.8c-0.2,0-0.4,0-0.6,0C7,70.5,0.4,77.1,0,85.4
		c-0.3,8.1,5.5,15.1,13.6,16.3v9.2c0,5,4.1,9,9.1,9.1v6.8c0,1.2,1,2.3,2.3,2.3h6.8c0.9,0,1.6-0.5,2-1.3l3.9-7.8h42.5l3.9,7.8
		c0.4,0.8,1.2,1.3,2,1.3h6.8c1.2,0,2.3-1,2.3-2.3v-6.8c5,0,9-4.1,9.1-9.1v-9.2C111.9,100.5,117.7,93.9,117.7,86z M30.3,124.5h-3.1
		v-4.5h5.4L30.3,124.5z M90.5,124.5h-3.1l-2.3-4.5h5.4V124.5z M101.8,97.3c-1.2,0-2.3,1-2.3,2.3v11.3c0,2.5-2,4.5-4.5,4.5H22.6
		c-2.5,0-4.5-2-4.5-4.5V99.6c0-1.2-1-2.3-2.3-2.3C9.6,97.3,4.5,92.2,4.5,86c0-0.1,0-0.3,0-0.4c0.2-5.9,5-10.6,10.9-10.9
		c6.2-0.2,11.5,4.6,11.8,10.9c0,0.1,0,0.3,0,0.4v9.2c-3.6,1.2-5.4,2.3-5.6,2.4l2.2,3.9c0.1-0.1,12-6.5,35.1-6.5s35,6.4,35.1,6.5
		l2.2-3.9c-0.2-0.1-2.1-1.1-5.6-2.4v-9c0-6.3,5-11.4,11.1-11.5c6.2-0.1,11.4,4.9,11.5,11.1c0.1,6.2-4.9,11.4-11.1,11.5
		C102,97.3,101.9,97.3,101.8,97.3z"/>
	<path class="st0" d="M18.1,54.3c0-2.5,2-4.5,4.5-4.5H95c2.5,0,4.5,2,4.5,4.5v11.3h4.5V54.3c0-5-4.1-9-9.1-9.1H22.6
		c-5,0-9,4.1-9.1,9.1v11.3h4.5V54.3z"/>
	<path class="st0" d="M45.3,58.8h4.5v4.5h-4.5V58.8z"/>
	<path class="st0" d="M56.6,70.2h4.5v4.5h-4.5V70.2z"/>
	<path class="st0" d="M33.9,70.2h4.5v4.5h-4.5V70.2z"/>
	<path class="st0" d="M45.3,81.5h4.5V86h-4.5V81.5z"/>
	<path class="st0" d="M67.9,58.8h4.5v4.5h-4.5V58.8z"/>
	<path class="st0" d="M79.2,70.2h4.5v4.5h-4.5V70.2z"/>
	<path class="st0" d="M67.9,81.5h4.5V86h-4.5V81.5z"/>
	<path class="st0" d="M15.8,36.2h20.4v4.5h4.5v-4.5h20.4c1.2,0,2.3-1,2.3-2.3c0-0.1,0-0.1,0-0.2L61.1,6.6C61,5.4,60,4.5,58.8,4.5
		H40.7V0h-4.5v4.5H18.1c-1.2,0-2.2,0.9-2.3,2.1l-2.3,27.2c-0.1,1.2,0.8,2.3,2.1,2.4C15.7,36.2,15.8,36.2,15.8,36.2z M20.2,9.1h36.6
		l1.9,22.6H18.3L20.2,9.1z"/>
</g>
</svg>
