<?xml version="1.0" encoding="utf-8"?>
<!-- Generator: Adobe Illustrator 20.1.0, SVG Export Plug-In . SVG Version: 6.00 Build 0)  -->
<svg version="1.1" id="Слой_1" xmlns="http://www.w3.org/2000/svg" xmlns:xlink="http://www.w3.org/1999/xlink" x="0px" y="0px"
	 viewBox="0 0 103.4 103.4" style="enable-background:new 0 0 103.4 103.4;" xml:space="preserve">
<style type="text/css">
	.st0{fill:#C4012B;}
</style>
<g>
	<path class="st0" d="M84.7,11.3c0-2.2-0.1-4.2,0-6.2c0.1-3.2,2-5.1,4.8-5c2.7,0,4.6,2.1,4.6,5.2c0,6,0.1,11.9,0,17.9
		c0,3.2-1.8,5-5,5.1c-6,0.1-12.1,0.1-18.1,0c-3.1,0-5.1-2-5.1-4.7c0-2.7,2.1-4.6,5.2-4.6c2.1-0.1,4.1,0,6.2,0
		c0.1-0.4,0.2-0.7,0.3-1.1c-3.7-1.9-7.3-4.3-11.3-5.7c-16.5-5.6-31.5-2.7-44,9.4C9.9,33.7,6.3,48.8,11.8,65.2
		c5.5,16.2,17.4,25.6,34.4,28.3c1.6,0.3,3.3,0.3,5,0.4c3.3,0.2,5.3,2,5.2,4.9c-0.1,2.8-2.2,4.6-5.5,4.6
		c-11.8-0.2-22.5-3.8-31.5-11.4C2.7,77.8-3.6,59.6,2,38.5C7.7,17.1,22.4,4.4,44.2,0.7C58-1.6,70.9,1.8,82.3,10.1
		c0.5,0.3,0.9,0.7,1.4,1C83.8,11.2,84,11.2,84.7,11.3z"/>
	<path class="st0" d="M47.1,37.7c0-4.4,0-8.9,0-13.3c0-3.4,1.8-5.4,4.6-5.5c2.9-0.1,4.8,2,4.8,5.5c0.1,7.7,0,15.4,0.1,23.1
		c0,1.3,0.7,2.9,1.6,3.9c3.2,3.5,6.7,6.8,10.1,10.2c2.7,2.8,3.1,5.5,0.9,7.6c-2.1,2-4.8,1.7-7.5-0.9c-4.2-4.1-8.4-8.2-12.4-12.5
		c-1.2-1.3-2-3.3-2.1-5.1C46.9,46.4,47.1,42,47.1,37.7z"/>
	<path class="st0" d="M69.9,90.5c2.5,0,4.6,2.1,4.6,4.7c0,2.7-2.1,4.8-4.8,4.7c-2.5-0.1-4.6-2.1-4.6-4.6
		C65,92.6,67.3,90.4,69.9,90.5z"/>
	<path class="st0" d="M95.3,74.5c-2.5,0.1-4.7-1.9-4.8-4.5c-0.1-2.6,2-4.9,4.6-4.9c2.6-0.1,4.8,2.1,4.7,4.7
		C99.9,72.4,97.9,74.4,95.3,74.5z"/>
	<path class="st0" d="M89.6,84.8c0,2.6-1.9,4.6-4.5,4.7c-2.7,0.1-4.8-2-4.8-4.7c0-2.6,2-4.6,4.6-4.6C87.6,80.3,89.6,82.2,89.6,84.8z
		"/>
	<path class="st0" d="M103.4,51.8c0,2.6-2.1,4.6-4.7,4.6c-2.6,0-4.8-2.2-4.7-4.9c0.1-2.5,2.2-4.6,4.8-4.5
		C101.5,47.1,103.5,49.2,103.4,51.8z"/>
</g>
</svg>
