<?xml version="1.0" encoding="utf-8"?>
<!-- Generator: Adobe Illustrator 20.1.0, SVG Export Plug-In . SVG Version: 6.00 Build 0)  -->
<svg version="1.1" id="Слой_1" xmlns="http://www.w3.org/2000/svg" xmlns:xlink="http://www.w3.org/1999/xlink" x="0px" y="0px"
	 viewBox="0 0 141.3 124.9" style="enable-background:new 0 0 141.3 124.9;" xml:space="preserve">
<style type="text/css">
	.st0{fill:#E60028;}
</style>
<g>
	<g>
		<path class="st0" d="M78.8,29.1c3.6,0,6.9-1.3,9.4-3.5c2.6,2.2,5.9,3.4,9.3,3.4c3.5,0,6.8-1.3,9.3-3.4c2.6,2.2,6,3.5,9.4,3.5
			c8,0,14.5-6.5,14.5-14.5s-6.5-14.5-14.5-14.5c-3.4,0-6.7,1.2-9.3,3.4c-2.5-2.2-5.8-3.5-9.4-3.5c-3.5,0-6.8,1.3-9.4,3.5
			c-2.5-2.1-5.7-3.4-9.3-3.4c-8,0-14.5,6.5-14.5,14.5S70.8,29.1,78.8,29.1L78.8,29.1z M126.6,14.6c0,5.7-4.6,10.3-10.3,10.3
			c-2.5,0-4.8-0.9-6.7-2.4c1.5-2.3,2.4-5.1,2.4-8c0-2.9-0.9-5.6-2.3-7.9c1.8-1.5,4.2-2.4,6.6-2.4C122,4.3,126.6,8.9,126.6,14.6z
			 M107.9,14.5c0,5.7-4.6,10.3-10.3,10.3c-2.4,0-4.7-0.8-6.6-2.4c1.5-2.3,2.3-5,2.3-7.9c0-3-0.9-5.7-2.4-8c1.9-1.6,4.2-2.4,6.7-2.4
			C103.2,4.1,107.9,8.8,107.9,14.5L107.9,14.5z M78.8,4.3c5.7,0,10.3,4.6,10.3,10.3S84.5,25,78.8,25c-5.7,0-10.3-4.6-10.3-10.3
			S73.1,4.3,78.8,4.3z"/>
		<path class="st0" d="M130.9,33.2H64.3c-5.7,0-10.3,4.6-10.3,10.3v33.7c0,3.4,2.8,6.2,6.2,6.2c0.7,0,1.4-0.1,2.1-0.4v34.5
			c0,4,3.3,7.3,7.3,7.3c4,0,7.3-3.3,7.3-7.3V79.3H81v38.2c0,4,3.3,7.3,7.3,7.3s7.3-3.3,7.3-7.3V83.1c0.6,0.2,1.3,0.3,2.1,0.3
			c0.7,0,1.4-0.1,2.1-0.3v34.3c0,4,3.3,7.3,7.3,7.3s7.3-3.3,7.3-7.3V83.1c0.6,0.2,1.3,0.3,2.1,0.3c0.7,0,1.4-0.1,2.1-0.3v34.4
			c0,4,3.3,7.3,7.3,7.3s7.3-3.3,7.3-7.3V83.1c0.6,0.2,1.3,0.3,2.1,0.3c3.5,0,6.2-2.7,6.2-6.1V43.6C141.3,37.9,136.6,33.2,130.9,33.2
			L130.9,33.2z M97.6,79.3c-1.2,0-2.1-0.8-2.1-1.9V43.6c0-1.1-0.9-2.1-2.1-2.1s-2.1,0.9-2.1,2.1v74c0,1.7-1.4,3.2-3.2,3.2
			s-3.2-1.4-3.2-3.2V77.3c0-1.1-0.9-2.1-2.1-2.1h-8.3c-1.1,0-2.1,0.9-2.1,2.1v40.3c0,1.7-1.4,3.2-3.2,3.2c-1.7,0-3.2-1.4-3.2-3.2
			v-74c0-1.1-0.9-2.1-2.1-2.1c-1.1,0-2.1,0.9-2.1,2.1v33.7c0,1.1-0.9,2.1-2.1,2.1c-1.1,0-2.1-0.9-2.1-2.1V43.6
			c0-3.4,2.8-6.2,6.2-6.2h29.2c3.4,0,6.2,2.8,6.2,6.2v33.8C99.7,78.5,98.8,79.3,97.6,79.3L97.6,79.3z M116.3,79.3
			c-1.2,0-2.1-0.8-2.1-1.9V43.5c0-1.1-0.9-2.1-2.1-2.1s-2.1,0.9-2.1,2.1v74c0,1.7-1.4,3.2-3.2,3.2c-1.7,0-3.1-1.4-3.1-3.2V43.6
			c0-2.3-0.8-4.5-2.1-6.2h10.4c3.4,0,6.2,2.8,6.2,6.2v33.8C118.4,78.5,117.5,79.3,116.3,79.3L116.3,79.3z M137.1,77.4
			c0,1.1-0.9,1.9-2.1,1.9c-1.2,0-2.1-0.8-2.1-1.9V43.6c0-1.1-0.9-2.1-2.1-2.1c-1.1,0-2.1,0.9-2.1,2.1v74c0,1.7-1.4,3.2-3.2,3.2
			c-1.7,0-3.2-1.4-3.2-3.2v-74c0-2.3-0.8-4.5-2.1-6.2h10.4c3.4,0,6.2,2.8,6.2,6.2V77.4z"/>
		<path class="st0" d="M39.5,33.2H10.3C4.6,33.2,0,37.9,0,43.6v33.7c0,3.4,2.8,6.2,6.2,6.2c0.7,0,1.4-0.1,2.1-0.4v34.5
			c0,4,3.3,7.3,7.3,7.3s7.3-3.3,7.3-7.3V79.3H27v38.2c0,4,3.3,7.3,7.3,7.3s7.3-3.3,7.3-7.3V83.1c0.6,0.2,1.3,0.3,2.1,0.3
			c3.5,0,6.2-2.7,6.2-6.1V43.6C49.8,37.9,45.2,33.2,39.5,33.2L39.5,33.2z M45.7,77.4c0,1.1-0.9,1.9-2.1,1.9s-2.1-0.8-2.1-1.9V43.6
			c0-1.1-0.9-2.1-2.1-2.1s-2.1,0.9-2.1,2.1v74c0,1.7-1.4,3.2-3.2,3.2c-1.7,0-3.2-1.4-3.2-3.2V77.3c0-1.1-0.9-2.1-2.1-2.1h-8.3
			c-1.1,0-2.1,0.9-2.1,2.1v40.3c0,1.7-1.4,3.2-3.2,3.2s-3.1-1.4-3.1-3.2V56c0-1.1-0.9-2.1-2.1-2.1S8.3,54.9,8.3,56v21.2
			c0,1.1-0.9,2.1-2.1,2.1c-1.1,0-2.1-0.9-2.1-2.1V43.6c0-3.4,2.8-6.2,6.2-6.2h29.2c3.4,0,6.2,2.8,6.2,6.2V77.4z"/>
		<circle class="st0" cx="10.3" cy="46.7" r="2.1"/>
	</g>
	<path class="st0" d="M26.4,28.8c-7.9,0-14.4-6.5-14.4-14.4S18.5,0,26.4,0s14.4,6.5,14.4,14.4S34.4,28.8,26.4,28.8z M26.4,4
		C20.7,4,16,8.7,16,14.4c0,5.7,4.7,10.4,10.4,10.4c5.7,0,10.4-4.7,10.4-10.4C36.8,8.7,32.2,4,26.4,4z"/>
</g>
</svg>
