<?xml version="1.0" encoding="utf-8"?>
<!-- Generator: Adobe Illustrator 20.1.0, SVG Export Plug-In . SVG Version: 6.00 Build 0)  -->
<svg version="1.1" id="Слой_1" xmlns="http://www.w3.org/2000/svg" xmlns:xlink="http://www.w3.org/1999/xlink" x="0px" y="0px"
	 viewBox="0 0 144.4 111.4" style="enable-background:new 0 0 144.4 111.4;" xml:space="preserve">
<style type="text/css">
	.st0{fill:#7E7C7C;}
</style>
<g>
	<g>
		<path class="st0" d="M109.8,54.7c7.8,0,15.7,0,23.5,0c2.2,0,3.7-0.4,4-3c0.1-0.8,1.2-2.2,2.3-2.1c1,0.1,1.5,1.5,1.7,2.4
			c0.5,2.9-1.2,5.7-4.1,6.5c-2.2,0.6-2.7,1.8-2.9,3.8c-1,10-2,20.1-3.2,30.1c-1.3,11.1-10.2,19-21.2,19c-11,0-20.1-8.1-21.4-19.3
			c-1.2-9.9-2.2-19.9-3.2-29.8c-0.2-2-0.5-3.3-2.8-3.9c-3-0.8-4.2-3.3-4.2-6.2c0.1-8-0.9-16.1,2-24c0.3-0.9-0.7-2.5-1.4-3.4
			c-4.9-5.9-4.9-14.1,0.2-19.8c5-5.6,13.4-6.5,19.6-2.1c0.6,0.4,1.4,0.8,1.7,1.4c3.6,7.2,10.4,2.2,15.4,4c0.3,0.1,1.2-1,1.7-1.7
			c5.5-7.4,14.9-8.7,21.8-3c6.7,5.5,7.1,15,1.1,21.8c-0.7,0.8-0.9,2.4-0.7,3.5c0.5,3.5,1.3,6.9,1.8,10.4c0.2,1.6,0.7,4.2-2.1,4.1
			c-2.6,0-2-2.3-2-4c-0.4-16.8-14.4-29-30.9-27c-12.9,1.5-23.3,12.7-23.7,25.7c-0.1,4.3,0,8.6-0.1,12.9c-0.1,2.6,1.1,3.4,3.5,3.4
			C93.9,54.6,101.8,54.7,109.8,54.7z M97.6,59.2c1.2,10.7,2.3,20.9,3.5,31.1c0.6,5.3,4,8.5,8.8,8.4c4.6,0,8.1-3.5,8.6-8.7
			c0.7-6.6,1.3-13.2,2-19.8c0.3-3.6,0.6-7.2,1-11C113.4,59.2,105.7,59.2,97.6,59.2z M89.3,59.3c0,0.6,0,1.2,0,1.7
			c1.1,9.9,2.2,19.9,3.2,29.8c1.1,9.7,8,16.4,17.1,16.5c9.2,0.1,16.4-6.8,17.4-16.5c0.6-6.1,1.3-12.2,1.9-18.3
			c0.5-4.3,0.9-8.7,1.4-13.2c-1.7,0-3,0-4.4,0c-1.1,10.6-2.1,21-3.2,31.3c-0.8,7.5-6.2,12.5-13.2,12.4c-6.8-0.1-11.9-5.1-12.7-12.5
			c-1.1-9.5-2.3-19-3.1-28.5C93.3,58.8,91.8,58.7,89.3,59.3z M98.7,9.9c-2.5-4.1-6.2-5.9-10.3-5.2C84,5.4,81,8,79.7,12.2
			c-1.2,3.9,0,7.8,3.2,10.3c2.1-2.2,2.1-2.2,1.1-5.1c-1-2.8-0.2-5.8,2.2-7.5c2.5-1.7,5.2-1.9,7.4,0.1C95.5,11.9,96.9,11.1,98.7,9.9z
			 M136.7,22.6c3.4-3.2,4.3-7.2,2.8-11.3c-1.6-4.1-5.3-6.8-9.6-6.9c-3.9-0.1-7.3,2-8.9,5.4c1.8,1.6,3.3,1.6,5.3,0
			c2.3-1.9,5.1-1.6,7.4,0.3c2.3,1.8,3.3,5,1.7,7.5C133.9,20,135,21.1,136.7,22.6z"/>
		<path class="st0" d="M34.9,54.7c7.8,0,15.7,0,23.5,0c2.1,0,3.5-0.3,3.7-2.9c0.1-0.8,1.1-2.3,2.2-2.2c1.2,0.1,1.9,1.9,1.9,2.9
			c0.1,2.9-1.3,5.3-4.3,6.1c-2,0.5-2.5,1.5-2.6,3.3c-1,9.9-2.1,19.9-3.2,29.8c-1.2,11.4-9.9,19.6-20.9,19.8
			c-11.3,0.2-20.3-7.6-21.8-19.1c-1.2-10-2.2-20.1-3.2-30.1C10,60.4,9.8,59,7.5,58.5c-2.8-0.6-4.4-2.8-4.4-5.7
			c0.2-8.2-1.2-16.6,2-24.6c0.3-0.7-0.3-2-0.9-2.6C-1.8,18.9-1.4,9.4,5.2,3.8c6.9-5.8,16.2-4.4,22,3.1c0.7,0.9,2.2,1,3.4,1.5
			c0.2,0.1,0.4-0.1,0.6-0.1C37,8.9,41.7,7.9,46.3,3.2c5.1-5.3,14.1-3.6,19.1,1.9c5.2,5.7,5.4,13.8,0.3,19.6
			c-1.6,1.8-1.7,3.2-1.1,5.4c0.9,3.4,1.3,6.9,1.5,10.5c0.1,1-0.8,3.3-2.1,3.3c-1.3,0-2-2.2-2-3.4c0-9.8-3.9-17.6-11.9-23.1
			c-8.7-6-18.1-6.6-27.5-2c-9.8,4.8-14.8,13.1-15.3,24C7.2,43.2,7.4,47,7.3,50.9c-0.1,2.7,1,3.8,3.8,3.8
			C19,54.6,26.9,54.7,34.9,54.7z M22.6,59.2c1.2,10.9,2.2,21.5,3.4,32c0.5,4.5,4.4,7.5,8.7,7.5c4.4,0,7.9-3.1,8.4-7.7
			c0.7-5.5,1.2-11.1,1.8-16.6c0.5-5,1-9.9,1.5-15.1C38.3,59.2,30.7,59.2,22.6,59.2z M14.2,59.4c1.2,11.2,2.1,22.3,3.7,33.4
			c1.3,8.7,8.8,14.6,17.2,14.4c8.8-0.2,15.7-6.6,16.8-15.7c0.6-5,1.1-10,1.6-15.1c0.6-5.7,1.3-11.4,1.9-17.3c-1.7,0-2.9,0-4.3,0
			c-0.2,1.6-0.4,3.1-0.6,4.6c-0.9,9-1.8,17.9-2.8,26.9c-0.8,7.2-5.9,12.1-12.6,12.3c-6.9,0.2-12.4-4.6-13.2-11.9
			c-1.2-9.6-2.2-19.2-3.1-28.8C18.4,59.4,17.4,58.4,14.2,59.4z M45.7,9.9c1.8,1.3,3.2,2.1,5.2,0.2c2.2-2,5.5-1.8,7.7,0.1
			c2.4,2.1,3.3,4.8,1.7,7.5c-1.4,2.4-0.2,3.5,1.4,5.1c3.1-2.9,4-6.3,3.1-10.2c-0.9-4.2-4.4-7.3-8.7-8C51.9,4,48.2,5.8,45.7,9.9z
			 M23.5,10.8c-2.3-5-6-6.8-10.1-6.1c-4.3,0.7-7.8,3.8-8.8,7.9c-1,4,0.3,7.7,3.5,10c0.7-0.9,1.4-1.8,2.1-2.8
			c-0.3-0.5-0.5-0.9-0.7-1.2c-1.7-3.3-1.2-6.3,1.3-8.4c2.3-2,5.3-1.7,8.3,0.1C20.3,11,22,10.6,23.5,10.8z"/>
		<path class="st0" d="M44.9,39.9c0,6-4.4,10.6-10.2,10.6c-5.8-0.1-10-4.4-10.1-10.3c-0.1-6.1,4.2-10.6,10-10.7
			C40.4,29.3,44.9,33.9,44.9,39.9z M28.9,39.8c0,3.7,2.3,6.3,5.8,6.3c3.4,0.1,6-2.6,6-6.1c0-3.6-2.5-6.3-5.8-6.4
			C31.4,33.6,28.9,36.2,28.9,39.8z"/>
		<path class="st0" d="M99.6,39.8c0.1-6,4.6-10.5,10.4-10.4c5.8,0.1,10,4.7,9.9,10.8c-0.1,5.9-4.5,10.2-10.2,10.2
			C103.9,50.4,99.5,45.8,99.6,39.8z M115.6,39.9c0-3.7-2.4-6.3-5.9-6.2c-3.3,0-5.9,2.7-5.8,6.3c0,3.6,2.5,6.2,5.9,6.2
			C113.2,46.2,115.6,43.6,115.6,39.9z"/>
	</g>
	<circle class="st0" cx="20.2" cy="30.1" r="3.1"/>
	<circle class="st0" cx="49.3" cy="30.1" r="3.1"/>
	<ellipse transform="matrix(0.1614 -0.9869 0.9869 0.1614 -10.274 67.7635)" class="st0" cx="34.7" cy="39.9" rx="2.5" ry="2.5"/>
	<circle class="st0" cx="95.1" cy="30.2" r="3.1"/>
	<circle class="st0" cx="124.3" cy="30.2" r="3.1"/>
	<ellipse transform="matrix(0.1614 -0.9869 0.9869 0.1614 52.5659 141.7993)" class="st0" cx="109.7" cy="40" rx="2.5" ry="2.5"/>
</g>
</svg>
