<?xml version="1.0" encoding="utf-8"?>
<!-- Generator: Adobe Illustrator 20.1.0, SVG Export Plug-In . SVG Version: 6.00 Build 0)  -->
<svg version="1.1" id="Слой_1" xmlns="http://www.w3.org/2000/svg" xmlns:xlink="http://www.w3.org/1999/xlink" x="0px" y="0px"
	 viewBox="0 0 112.5 112.3" style="enable-background:new 0 0 112.5 112.3;" xml:space="preserve">
<style type="text/css">
	.st0{fill:#C4012B;}
</style>
<g>
	<path class="st0" d="M109.2,105.8h-1V65.5c0-1.8-1.5-3.3-3.3-3.3H84.5V3.3c0-1.8-1.5-3.3-3.3-3.3h-50c-1.8,0-3.3,1.5-3.3,3.3v21.6
		H7.6c-1.8,0-3.3,1.5-3.3,3.3v77.6h-1c-1.8,0-3.3,1.5-3.3,3.3c0,1.8,1.5,3.3,3.3,3.3h105.9c1.8,0,3.3-1.5,3.3-3.3
		C112.5,107.2,111,105.8,109.2,105.8L109.2,105.8z M101.6,68.8v8.7h-17v-8.7H101.6z M27.9,65.3h-17V51.1h17L27.9,65.3L27.9,65.3z
		 M10.9,71.9h17v14.2h-17V71.9z M27.9,31.5v13h-17v-13H27.9z M10.9,92.7h17v13h-17V92.7z M34.5,6.6H78v99.2h-7V87.3
		c0-1.8-1.5-3.3-3.3-3.3H44.8c-1.8,0-3.3,1.5-3.3,3.3v18.5h-7L34.5,6.6z M48.1,105.8V90.6h16.3v15.2H48.1z M84.5,105.8V84.1h17v21.7
		H84.5z"/>
	<path class="st0" d="M44.4,20h23.7c1.8,0,3.3-1.5,3.3-3.3s-1.5-3.3-3.3-3.3H44.4c-1.8,0-3.3,1.5-3.3,3.3S42.6,20,44.4,20z"/>
	<path class="st0" d="M44.4,33.9h23.7c1.8,0,3.3-1.5,3.3-3.3s-1.5-3.3-3.3-3.3H44.4c-1.8,0-3.3,1.5-3.3,3.3S42.6,33.9,44.4,33.9z"/>
	<path class="st0" d="M44.4,47.8h23.7c1.8,0,3.3-1.5,3.3-3.3s-1.5-3.3-3.3-3.3H44.4c-1.8,0-3.3,1.5-3.3,3.3S42.6,47.8,44.4,47.8z"/>
	<path class="st0" d="M44.4,61.8h23.7c1.8,0,3.3-1.5,3.3-3.3s-1.5-3.3-3.3-3.3H44.4c-1.8,0-3.3,1.5-3.3,3.3S42.6,61.8,44.4,61.8z"/>
	<path class="st0" d="M44.4,75.7h23.7c1.8,0,3.3-1.5,3.3-3.3c0-1.8-1.5-3.3-3.3-3.3H44.4c-1.8,0-3.3,1.5-3.3,3.3
		C41.1,74.2,42.6,75.7,44.4,75.7z"/>
</g>
</svg>
