<?xml version="1.0" encoding="utf-8"?>
<!-- Generator: Adobe Illustrator 20.1.0, SVG Export Plug-In . SVG Version: 6.00 Build 0)  -->
<svg version="1.1" id="Слой_1" xmlns="http://www.w3.org/2000/svg" xmlns:xlink="http://www.w3.org/1999/xlink" x="0px" y="0px"
	 viewBox="0 0 183.9 132.9" style="enable-background:new 0 0 183.9 132.9;" xml:space="preserve">
<style type="text/css">
	.st0{fill:#E60028;}
</style>
<path class="st0" d="M62.8,10c0-0.1,0-0.1,0-0.2c-0.1-0.3-0.2-0.6-0.3-0.8c-0.2-0.2-0.3-0.5-0.6-0.6c-0.2-0.2-0.5-0.3-0.8-0.4
	c-0.3-0.1-0.6-0.1-0.9,0c-0.3,0.1-0.6,0.2-0.8,0.3c-0.2,0.2-0.5,0.3-0.6,0.6c0,0.1-0.1,0.1-0.1,0.2c-0.1,0.2-0.2,0.4-0.3,0.6
	l-3.3,13.8c-0.1,0.3-0.1,0.5,0,0.8c0.1,0.2,0.2,0.5,0.3,0.7c0.2,0.2,0.4,0.4,0.6,0.5c0.2,0.2,0.5,0.3,0.8,0.3
	c0.3,0.1,0.6,0.1,0.9,0.1c0.3,0,0.6-0.1,0.8-0.2s0.4-0.3,0.6-0.5c0.2-0.2,0.3-0.4,0.3-0.7l3.3-13.8C62.9,10.5,62.9,10.2,62.8,10z"/>
<path class="st0" d="M38.3,10.9c0-0.1-0.1-0.1-0.1-0.2c-0.2-0.2-0.5-0.3-0.7-0.4c-0.3-0.1-0.6-0.1-0.9-0.1c-0.3,0-0.6,0.1-0.9,0.2
	c-0.3,0.1-0.5,0.3-0.7,0.5s-0.3,0.5-0.4,0.7c-0.1,0.3-0.1,0.6-0.1,0.8c0,0.1,0,0.1,0,0.2c0,0.2,0,0.4,0.1,0.6l6,12.9
	c0.1,0.2,0.3,0.4,0.5,0.6s0.4,0.3,0.7,0.3c0.3,0.1,0.5,0.1,0.8,0.1s0.6-0.1,0.9-0.2c0.3-0.1,0.5-0.3,0.8-0.5
	c0.2-0.2,0.4-0.4,0.5-0.7c0.1-0.2,0.2-0.5,0.2-0.7c0-0.3,0-0.5-0.2-0.7l-6-12.9C38.6,11.2,38.4,11,38.3,10.9z"/>
<path class="st0" d="M17.9,24c-0.1,0-0.1,0-0.2-0.1c-0.3,0-0.6,0-0.9,0c-0.3,0.1-0.6,0.2-0.8,0.3c-0.2,0.2-0.5,0.4-0.6,0.6
	c-0.2,0.3-0.3,0.5-0.3,0.8s0,0.6,0,0.9c0.1,0.3,0.2,0.5,0.3,0.8c0,0.1,0.1,0.1,0.1,0.2c0.1,0.2,0.3,0.3,0.5,0.5l12,7.6
	c0.2,0.1,0.5,0.2,0.7,0.3c0.3,0,0.5,0,0.7-0.1s0.5-0.2,0.7-0.4s0.4-0.4,0.6-0.7s0.3-0.6,0.4-0.8c0.1-0.3,0.1-0.6,0.1-0.8
	c0-0.3-0.1-0.5-0.2-0.7s-0.3-0.4-0.5-0.5l-12-7.6C18.3,24.1,18.1,24,17.9,24z"/>
<g>
	<path class="st0" d="M133.5,1.2c11.3,0,20.2,2.5,28.2,8.3c14.9,10.8,15.5,29.6,1.1,41c-10.5,8.3-22.6,10.6-35.7,8.6
		c-2.4-0.4-4.1,0-5.9,1.5c-1.7,1.4-3.4,2.8-5.3,3.7c-1,0.4-3,0.2-3.6-0.5c-0.5-0.7-0.3-3,0.4-3.6c3-2.5,6.2-4.8,9.5-6.9
		c0.8-0.5,2.3-0.2,3.4,0c11.3,2.3,22.1,0.9,31.9-5.5c4.5-2.9,8-6.8,9.5-12.1c2.3-8-0.3-14.6-6.3-20C147.4,3.9,124,3.6,110.3,15
		c-9.4,7.8-10.4,19-2.5,28.4c1.8,2.2,3.8,4.2,5.3,6.6c0.5,0.8,0.3,2.8-0.3,3.4c-0.6,0.6-2.8,0.7-3.4,0.2
		c-5.3-5.8-11.2-11.3-12.2-19.9c-1.1-9.1,2.3-16.4,9-22.3C114.4,4.2,124.3,1.3,133.5,1.2z"/>
</g>
<g>
	<path class="st0" d="M123.7,29.4c-0.2,0-0.5,0-0.7-0.1s-0.4-0.2-0.6-0.4c-0.2-0.2-0.3-0.3-0.4-0.6c-0.1-0.2-0.1-0.4-0.1-0.7v-0.1
		c0-0.7,0.2-1.4,0.4-2c0.3-0.6,0.7-1.2,1.2-1.7s1.1-0.8,1.7-1.1c0.6-0.3,1.3-0.4,2.1-0.4s1.4,0.1,2.1,0.4c0.6,0.3,1.2,0.7,1.7,1.1
		c0.5,0.5,0.9,1.1,1.2,1.7s0.4,1.3,0.4,2.1c0,0.7-0.1,1.4-0.4,2c-0.3,0.6-0.7,1.2-1.1,1.6c-0.5,0.5-1,0.8-1.7,1.1
		c-0.6,0.3-1.3,0.4-2,0.5v0.3c0,0.2,0,0.5-0.1,0.7s-0.2,0.4-0.3,0.5c-0.1,0.2-0.3,0.3-0.5,0.4c-0.2,0.1-0.4,0.1-0.7,0.1
		c-0.2,0-0.5,0-0.7-0.1s-0.4-0.2-0.5-0.4s-0.3-0.3-0.4-0.5s-0.1-0.4-0.1-0.7v-2c0-0.2,0-0.5,0.1-0.7s0.2-0.4,0.4-0.5
		c0.2-0.2,0.3-0.3,0.5-0.4s0.4-0.1,0.7-0.1h1.5c0.3,0,0.5,0,0.7-0.1c0.2-0.1,0.4-0.2,0.6-0.4c0.2-0.2,0.3-0.4,0.4-0.6
		s0.2-0.5,0.2-0.7s0-0.5-0.1-0.7s-0.2-0.4-0.4-0.6s-0.4-0.3-0.6-0.4c-0.2-0.1-0.5-0.2-0.8-0.2s-0.5,0-0.7,0.1s-0.5,0.2-0.6,0.4
		c-0.2,0.2-0.3,0.4-0.4,0.6s-0.2,0.5-0.2,0.8c0,0.2,0,0.5-0.1,0.7s-0.2,0.4-0.3,0.6c-0.1,0.2-0.3,0.3-0.5,0.4S123.9,29.4,123.7,29.4
		z"/>
	<path class="st0" d="M124,37.5c0-0.2,0-0.5,0.1-0.7s0.2-0.4,0.4-0.6c0.2-0.2,0.3-0.3,0.6-0.4c0.2-0.1,0.4-0.1,0.7-0.1
		c0.2,0,0.5,0,0.7,0.1s0.4,0.2,0.6,0.4s0.3,0.3,0.4,0.6c0.1,0.2,0.1,0.4,0.1,0.7c0,0.2,0,0.5-0.1,0.7s-0.2,0.4-0.4,0.6
		c-0.2,0.2-0.3,0.3-0.6,0.4c-0.2,0.1-0.4,0.1-0.7,0.1c-0.2,0-0.5,0-0.7-0.1s-0.4-0.2-0.6-0.4s-0.3-0.3-0.4-0.6
		C124.1,38,124,37.7,124,37.5z"/>
	<path class="st0" d="M134.5,24.1c0-0.2,0-0.5,0.1-0.7s0.2-0.4,0.4-0.5s0.3-0.3,0.5-0.4s0.4-0.1,0.7-0.1c0.2,0,0.5,0,0.7,0.1
		s0.4,0.2,0.5,0.4s0.3,0.3,0.4,0.5c0.1,0.2,0.1,0.4,0.1,0.7V33c0,0.2,0,0.5-0.1,0.7s-0.2,0.4-0.4,0.5c-0.2,0.2-0.3,0.3-0.5,0.4
		s-0.4,0.1-0.7,0.1c-0.2,0-0.5,0-0.7-0.1s-0.4-0.2-0.5-0.4s-0.3-0.3-0.4-0.5c-0.1-0.2-0.1-0.4-0.1-0.7V24.1z M134.5,37.4
		c0-0.2,0-0.5,0.1-0.7s0.2-0.4,0.4-0.6c0.2-0.2,0.3-0.3,0.6-0.4c0.2-0.1,0.4-0.1,0.7-0.1c0.2,0,0.5,0,0.7,0.1s0.4,0.2,0.6,0.4
		c0.2,0.2,0.3,0.3,0.4,0.6c0.1,0.2,0.1,0.4,0.1,0.7c0,0.2,0,0.5-0.1,0.7s-0.2,0.4-0.4,0.6c-0.2,0.2-0.3,0.3-0.6,0.4
		s-0.4,0.1-0.7,0.1c-0.2,0-0.5,0-0.7-0.1s-0.4-0.2-0.6-0.4c-0.2-0.2-0.3-0.3-0.4-0.6C134.5,37.8,134.5,37.6,134.5,37.4z"/>
	<path class="st0" d="M142,29.4c-0.2,0-0.5,0-0.7-0.1s-0.4-0.2-0.6-0.4c-0.2-0.2-0.3-0.3-0.4-0.6c-0.1-0.2-0.1-0.4-0.1-0.7v-0.1
		c0-0.7,0.2-1.4,0.4-2c0.3-0.6,0.7-1.2,1.2-1.7s1.1-0.8,1.7-1.1c0.6-0.3,1.3-0.4,2.1-0.4s1.4,0.1,2.1,0.4c0.6,0.3,1.2,0.7,1.7,1.1
		c0.5,0.5,0.9,1.1,1.2,1.7s0.4,1.3,0.4,2.1c0,0.7-0.1,1.4-0.4,2c-0.3,0.6-0.7,1.2-1.1,1.6c-0.5,0.5-1,0.8-1.7,1.1
		c-0.6,0.3-1.3,0.4-2,0.5v0.3c0,0.2,0,0.5-0.1,0.7s-0.2,0.4-0.3,0.5s-0.3,0.3-0.5,0.4c-0.2,0.1-0.4,0.1-0.7,0.1
		c-0.2,0-0.5,0-0.7-0.1s-0.4-0.2-0.5-0.4s-0.3-0.3-0.4-0.5c-0.1-0.2-0.1-0.4-0.1-0.7v-2c0-0.2,0-0.5,0.1-0.7s0.2-0.4,0.4-0.5
		c0.2-0.2,0.3-0.3,0.5-0.4s0.4-0.1,0.7-0.1h1.5c0.3,0,0.5,0,0.7-0.1s0.4-0.2,0.6-0.4c0.2-0.2,0.3-0.4,0.4-0.6
		c0.1-0.2,0.2-0.5,0.2-0.7s0-0.5-0.1-0.7s-0.2-0.4-0.4-0.6s-0.4-0.3-0.6-0.4c-0.2-0.1-0.5-0.2-0.8-0.2s-0.5,0-0.7,0.1
		s-0.5,0.2-0.6,0.4c-0.2,0.2-0.3,0.4-0.4,0.6s-0.2,0.5-0.2,0.8c0,0.2,0,0.5-0.1,0.7s-0.2,0.4-0.3,0.6s-0.3,0.3-0.5,0.4
		C142.5,29.3,142.2,29.4,142,29.4z M142.4,37.5c0-0.2,0-0.5,0.1-0.7s0.2-0.4,0.4-0.6c0.2-0.2,0.3-0.3,0.6-0.4
		c0.2-0.1,0.4-0.1,0.7-0.1c0.2,0,0.5,0,0.7,0.1s0.4,0.2,0.6,0.4c0.2,0.2,0.3,0.3,0.4,0.6c0.1,0.2,0.1,0.4,0.1,0.7
		c0,0.2,0,0.5-0.1,0.7s-0.2,0.4-0.4,0.6c-0.2,0.2-0.3,0.3-0.6,0.4c-0.2,0.1-0.4,0.1-0.7,0.1c-0.2,0-0.5,0-0.7-0.1s-0.4-0.2-0.6-0.4
		c-0.2-0.2-0.3-0.3-0.4-0.6C142.4,38,142.4,37.7,142.4,37.5z"/>
</g>
<path class="st0" d="M74.4,88.3c-0.9,0-1.8-0.5-2.2-1.4c-1.3-2.7-4.1-4.4-7.1-4.4c-2.8,0-5.4,1.4-6.8,3.7c-0.7,1.2-2.2,1.5-3.4,0.8
	s-1.5-2.2-0.8-3.4c2.3-3.7,6.5-6.1,11-6.1c4.9,0,9.5,2.8,11.6,7.1c0.6,1.2,0.1,2.7-1.1,3.3C75.2,88.3,74.8,88.3,74.4,88.3z"/>
<g>
	<path class="st0" d="M86.5,106.3c22.6-20.7,16.2-50.5,0.8-64.2c-16.6-14.7-41.7-14.2-58.1,1.7c-15.4,14.9-18.4,43.4,2.3,62.4
		c-0.8,0.7-1.5,1.3-2.3,2c-5.3,4.2-9.8,9.2-13.1,15.2c-0.6,1.1-1.2,2.2-1.6,3.4c-0.7,2-0.4,3.8,1.6,4.8c2.1,1,3.7,0.1,4.9-1.9
		c2.5-3.9,5-7.9,7.9-11.4c1.8-2.2,4.4-3.8,6.6-5.7c1.7-1.4,3.3-1.7,5.4-0.6c2.1,1.2,4.4,1.1,5.5-1.4s-0.3-4-2.6-5.2
		C28,97.3,20.7,81.1,25.2,64.2c4.2-15.7,19.6-26.5,36.2-25.5c16.2,1,29.9,13.8,32.1,29.7c2.4,17.6-6.9,32.8-23.8,38.7
		c-0.8,0.3-1.6,0.4-2.4,0.8c-2,1-2.9,2.8-1.8,4.6c0.7,1.1,2.9,2.2,4.2,2c2.6-0.4,5-1.9,7.6-2.6c1.4-0.3,3.3-0.3,4.5,0.4
		c5.9,3.7,10.3,8.9,13.9,14.9c0.6,1.1,1.6,2.5,2.7,2.7c1.2,0.3,3.2-0.2,3.8-1.1c0.7-1,0.8-3.1,0.2-4.2c-3.1-6.3-7.6-11.6-13.1-16
		C88.4,107.9,87.4,107.1,86.5,106.3z"/>
	<path class="st0" d="M53.8,60.8c-2.6-0.1-4.4,1.7-4.4,4.1s1.6,4.1,4,4.2c2.5,0.1,4.4-1.7,4.4-4.1C57.9,62.6,56.2,60.8,53.8,60.8z"
		/>
	<path class="st0" d="M70.7,64.9c-0.1,2.3,1.6,4.1,4,4.3c2.5,0.1,4.4-1.5,4.4-4c0.1-2.4-1.5-4.1-3.9-4.2
		C72.6,60.7,70.7,62.4,70.7,64.9z"/>
</g>
</svg>
