<?xml version="1.0" encoding="utf-8"?>
<!-- Generator: Adobe Illustrator 20.1.0, SVG Export Plug-In . SVG Version: 6.00 Build 0)  -->
<svg version="1.1" id="Слой_1" xmlns="http://www.w3.org/2000/svg" xmlns:xlink="http://www.w3.org/1999/xlink" x="0px" y="0px"
	 viewBox="0 0 80.5 132.9" style="enable-background:new 0 0 80.5 132.9;" xml:space="preserve">
<style type="text/css">
	.st0{fill:#7E7C7C;}
	.st1{fill:#CFCFCF;}
</style>
<g>
	<path class="st0" d="M40.5,83.7c1.4,0,2.5-1.1,2.5-2.5s-1.1-2.5-2.5-2.5c-1.4,0-2.5,1.1-2.5,2.5S39.1,83.7,40.5,83.7z"/>
	<path class="st1" d="M54.4,64.5c5.9-3.6,10.8-8.6,14.1-14.6c3.3-5.9,5-12.5,5-19.2V16.4c3-1,5.1-3.9,5.1-7.2V4.2
		c0-1.4-1.1-2.5-2.5-2.5H4.9c-1.4,0-2.5,1.1-2.5,2.5v5.1c0,3.3,2.1,6.1,5.1,7.2v14.3c0,6.7,1.7,13.3,5,19.2c3.3,6,8.2,11,14.1,14.6
		c0.8,0.5,1.2,1.3,1.2,2.2c0,0.9-0.5,1.8-1.2,2.2c-5.9,3.6-10.8,8.6-14.1,14.6c-3.3,5.9-5,12.5-5,19.2V117c-3,1-5.1,3.9-5.1,7.2v5.1
		c0,1.4,1.1,2.5,2.5,2.5h71.2c1.4,0,2.5-1.1,2.5-2.5v-5.1c0-3.3-2.1-6.1-5.1-7.2v-14.3c0-6.7-1.7-13.3-5-19.2
		c-3.3-6-8.2-11-14.1-14.6c-0.8-0.5-1.2-1.3-1.2-2.2C53.2,65.8,53.7,64.9,54.4,64.5z M7.5,6.7h66.1v2.5c0,1.4-1.1,2.5-2.5,2.5H10
		c-1.4,0-2.5-1.1-2.5-2.5V6.7z M73.6,126.7H7.5v-2.5c0-1.4,1.1-2.5,2.5-2.5h61c1.4,0,2.5,1.1,2.5,2.5V126.7z M51.8,73.3
		c10.5,6.4,16.7,17.4,16.7,29.4v13.8H12.6v-13.8c0-12.1,6.2-23.1,16.7-29.4c2.3-1.4,3.7-3.8,3.7-6.6c0-2.7-1.4-5.2-3.7-6.6
		c-10.5-6.4-16.7-17.4-16.7-29.4V16.9h55.9v13.8c0,12.1-6.2,23.1-16.7,29.4c-2.3,1.4-3.7,3.8-3.7,6.6C48.2,69.4,49.5,71.9,51.8,73.3
		z"/>
	<path class="st0" d="M42.6,89.7c-0.5-0.6-1.2-1-2-1c0,0,0,0,0,0c-0.8,0-1.6,0.4-2,1c-1,1.3-2.2,2.4-3.5,3.2
		c-2.9,1.8-5.5,2.9-7.8,3.8c-5.1,2.1-9.5,4-9.5,11v1.1c0,1.4,1.1,2.5,2.5,2.5h40.7c1.4,0,2.5-1.1,2.5-2.5v-1.1c0-7-4.4-8.9-9.5-11.1
		c-2.3-1-4.9-2.1-7.9-3.9C44.7,92,43.5,91,42.6,89.7z M58.2,106.4H22.8c0.4-2.3,2-3.1,6.3-4.9c2.3-1,5.2-2.2,8.5-4.2c0,0,0,0,0,0
		c1.1-0.7,2-1.4,2.9-2.2c0.9,0.8,1.8,1.5,2.8,2.2c0,0,0,0,0,0c3.3,2,6.2,3.2,8.5,4.2C56.2,103.2,57.8,104,58.2,106.4z"/>
	<path class="st0" d="M63.4,30.7V26c0-0.9-0.5-1.8-1.3-2.2c-0.8-0.4-1.8-0.4-2.6,0.1c-5.7,3.6-12.3,5.4-19,5.4
		c-6.7,0-13.3-1.9-19-5.4c-0.8-0.5-1.8-0.5-2.6-0.1c-0.8,0.4-1.3,1.3-1.3,2.2v4.7c0,4.4,1.7,9.1,4.9,13.7c3.1,4.4,7.4,8.4,12.5,11.4
		c1,0.6,2,1.5,2.9,2.6V71c0,1.4,1.1,2.5,2.5,2.5c1.4,0,2.5-1.1,2.5-2.5V58.4c0.9-1.1,2-2,3-2.7C56.5,49.5,63.4,39.4,63.4,30.7z
		 M43.5,51.4C43.5,51.4,43.5,51.4,43.5,51.4c-1,0.6-2,1.4-2.9,2.3c-0.9-0.9-1.8-1.6-2.8-2.2c0,0,0,0,0,0
		c-8.9-5.4-14.9-13.7-14.9-20.7v-0.4c5.5,2.7,11.6,4.1,17.8,4.1s12.3-1.4,17.8-4.1v0.4C58.3,37.6,52.2,46.1,43.5,51.4z"/>
</g>
</svg>
