<?xml version="1.0" encoding="utf-8"?>
<!-- Generator: Adobe Illustrator 20.1.0, SVG Export Plug-In . SVG Version: 6.00 Build 0)  -->
<svg version="1.1" id="Слой_1" xmlns="http://www.w3.org/2000/svg" xmlns:xlink="http://www.w3.org/1999/xlink" x="0px" y="0px"
	 viewBox="0 0 136 135.7" style="enable-background:new 0 0 136 135.7;" xml:space="preserve">
<style type="text/css">
	.st0{fill:#E60028;}
</style>
<g>
	<g>
		<path class="st0" d="M49.6,27.1c0-0.1,0-0.2-0.1-0.2c-0.1-0.3-0.3-0.6-0.6-0.8c-0.2-0.2-0.5-0.4-0.8-0.6c-0.3-0.1-0.6-0.2-1-0.2
			s-0.7,0.1-1,0.2s-0.6,0.3-0.8,0.6c-0.2,0.2-0.4,0.5-0.6,0.8c0,0.1,0,0.2-0.1,0.2c-0.1,0.2-0.2,0.5-0.2,0.7v29.1
			c0,0.3,0.1,0.6,0.2,0.9c0.1,0.3,0.3,0.5,0.5,0.7s0.5,0.3,0.8,0.5c0.3,0.1,0.7,0.2,1,0.2s0.7-0.1,1-0.2c0.3-0.1,0.6-0.3,0.8-0.5
			s0.4-0.4,0.6-0.7c0.1-0.3,0.2-0.5,0.2-0.9V27.8C49.7,27.5,49.7,27.3,49.6,27.1z"/>
		<circle class="st0" cx="47.1" cy="65" r="2.6"/>
	</g>
	<path class="st0" d="M107.1,76.1c-0.1-0.3-0.3-0.6-0.6-0.8c-0.2-0.2-0.5-0.4-0.8-0.6c-0.1,0-0.2,0-0.2-0.1
		c-0.2-0.1-0.5-0.2-0.7-0.2H79.5c-1,2.1-2.6,3.9-4.8,4.9l0.1,0.1c0.3,0.1,0.5,0.2,0.9,0.2h29.1c0.3,0,0.5-0.1,0.7-0.2
		c0.1,0,0.2,0,0.2-0.1c0.3-0.1,0.6-0.3,0.8-0.6s0.4-0.5,0.6-0.8s0.2-0.6,0.2-1S107.3,76.4,107.1,76.1z"/>
	<path class="st0" d="M105.5,92c0.1,0,0.2,0,0.2-0.1c0.3-0.1,0.6-0.3,0.8-0.6c0.2-0.2,0.4-0.5,0.6-0.8c0.1-0.3,0.2-0.6,0.2-1
		s-0.1-0.7-0.2-1s-0.3-0.6-0.6-0.8c-0.2-0.2-0.5-0.4-0.8-0.6c-0.1,0-0.2,0-0.2-0.1c-0.2-0.1-0.5-0.2-0.7-0.2H75.7
		c-0.3,0-0.6,0.1-0.9,0.2s-0.5,0.3-0.7,0.5s-0.3,0.5-0.5,0.8c-0.1,0.3-0.2,0.7-0.2,1s0.1,0.7,0.2,1s0.3,0.6,0.5,0.8
		c0.2,0.2,0.4,0.4,0.7,0.6c0.3,0.1,0.5,0.2,0.9,0.2h29.1C105,92.2,105.3,92.1,105.5,92z"/>
	<path class="st0" d="M105.5,104.5c0.1,0,0.2,0,0.2-0.1c0.3-0.1,0.6-0.3,0.8-0.6c0.2-0.2,0.4-0.5,0.6-0.8c0.1-0.3,0.2-0.6,0.2-1
		s-0.1-0.7-0.2-1s-0.3-0.6-0.6-0.8c-0.2-0.2-0.5-0.4-0.8-0.6c-0.1,0-0.2,0-0.2-0.1c-0.2-0.1-0.5-0.2-0.7-0.2H75.7
		c-0.3,0-0.6,0.1-0.9,0.2s-0.5,0.3-0.7,0.5s-0.3,0.5-0.5,0.8c-0.1,0.3-0.2,0.7-0.2,1s0.1,0.7,0.2,1s0.3,0.6,0.5,0.8
		c0.2,0.2,0.4,0.4,0.7,0.6c0.3,0.1,0.5,0.2,0.9,0.2h29.1C105,104.7,105.3,104.6,105.5,104.5z"/>
	<g>
		<g>
			<path class="st0" d="M128.8,111.2c0-0.1,0-0.2,0-0.4c3.5-6.4,5.4-13.6,5.5-20.9c0.2-12-4.4-23.4-12.9-32
				c-4.1-4.2-8.9-7.5-14.3-9.8c-5.1-2.2-10.5-3.4-16-3.6c-0.4-11.3-5-21.9-13.1-29.9c-8.5-8.4-19.7-13-31.6-13h-0.1
				c-6.1,0-12,1.2-17.6,3.6c-5.4,2.3-10.2,5.6-14.3,9.8c-8.5,8.6-13,20-12.9,32c0.1,7.3,2,14.5,5.5,20.9c0.1,0.1,0.1,0.3,0,0.4
				L2.2,83.7c-0.7,2-0.2,4.2,1.2,5.7c1.1,1.2,2.6,1.8,4.2,1.8c0.5,0,1-0.1,1.4-0.2l17.4-4.6c0.1,0,0.2,0,0.3,0
				c5.7,2.8,11.8,4.3,18.2,4.5c0.4,11.2,5,21.8,13,29.8c8.5,8.5,19.7,13.2,31.7,13.2c6.9,0,13.6-1.5,19.8-4.6c0.1,0,0.2-0.1,0.3,0
				l17.4,4.6c0.5,0.1,1,0.2,1.4,0.2c1.6,0,3.1-0.6,4.2-1.8c1.4-1.5,1.9-3.7,1.2-5.7L128.8,111.2z M25.1,81.4L7.7,85.9
				c-0.2,0-0.3,0-0.4-0.1c-0.2-0.2-0.1-0.4-0.1-0.4L12.3,70c0.5-1.5,0.3-3.2-0.4-4.6C8.8,59.8,7.1,53.4,7,47
				c-0.2-10.6,3.9-20.6,11.3-28.2C25.8,11.2,35.8,7,46.4,7h0.1C57.1,6.9,67,11,74.4,18.4C81.9,25.8,86,35.7,86,46.3
				c0,10.5-4.1,20.4-11.6,27.9S57,85.8,46.4,85.8c-6.1,0-12-1.4-17.4-4C27.9,81.1,26.5,81,25.1,81.4z M128.9,128.7
				c-0.1,0.1-0.3,0.2-0.4,0.1l-17.4-4.6c-1.3-0.3-2.7-0.2-4,0.4c-5.5,2.7-11.3,4-17.4,4c-10.5,0-20.5-4.1-28-11.6
				c-7.1-7.1-11.1-16.3-11.5-26.2c10.6-0.9,20.4-5.4,28-13s12.1-17.5,12.9-28c10.1,0.4,19.5,4.5,26.7,11.8
				c7.5,7.6,11.5,17.6,11.3,28.2c-0.1,6.4-1.8,12.8-4.9,18.4c-0.8,1.4-0.9,3.1-0.4,4.6l5.1,15.4C129,128.3,129.1,128.5,128.9,128.7z
				"/>
		</g>
	</g>
</g>
</svg>
