<?xml version="1.0" encoding="utf-8"?>
<!-- Generator: Adobe Illustrator 20.1.0, SVG Export Plug-In . SVG Version: 6.00 Build 0)  -->
<svg version="1.1" id="Слой_1" xmlns="http://www.w3.org/2000/svg" xmlns:xlink="http://www.w3.org/1999/xlink" x="0px" y="0px"
	 viewBox="0 0 139.1 135.7" style="enable-background:new 0 0 139.1 135.7;" xml:space="preserve">
<style type="text/css">
	.st0{fill:#CFCFCF;}
	.st1{fill:#7E7C7C;}
</style>
<g>
	<path class="st0" d="M57.2,121.1l-0.4,2L57.2,121.1c-1.1-0.2-2.2,0.5-2.4,1.6c-0.2,1.1,0.5,2.2,1.6,2.4c0,0,0,0,0,0
		c0.1,0,0.3,0,0.4,0c1,0,1.8-0.7,2-1.6C59,122.4,58.3,121.3,57.2,121.1z"/>
	<path class="st0" d="M72.6,121.8l0.2,2L72.6,121.8c-1.1,0.1-1.9,1.1-1.8,2.2c0.1,1,1,1.8,2,1.8c0.1,0,0.1,0,0.2,0l0.1,0
		c1.1-0.1,1.9-1.1,1.8-2.2C74.8,122.4,73.8,121.6,72.6,121.8z"/>
	<path class="st0" d="M64.9,122L64.9,122c-1.1-0.1-2.1,0.8-2.1,1.9c0,1.1,0.8,2.1,1.9,2.1c0,0,0.1,0,0.1,0c1.1,0,2-0.8,2-1.9
		C66.9,123,66,122.1,64.9,122z"/>
	<path class="st0" d="M49.7,119.1L49.7,119.1c-1.1-0.4-2.2,0.2-2.6,1.2c-0.4,1.1,0.2,2.2,1.2,2.6c0.2,0.1,0.5,0.1,0.7,0.1
		c0.8,0,1.6-0.5,1.9-1.3C51.3,120.6,50.8,119.4,49.7,119.1z"/>
	<path class="st0" d="M80.3,120.3l0.5,2L80.3,120.3c-1.1,0.3-1.7,1.4-1.5,2.5c0.2,0.9,1.1,1.5,2,1.5c0.2,0,0.3,0,0.5-0.1
		c0,0,0,0,0.1,0c1.1-0.3,1.7-1.4,1.4-2.5C82.5,120.7,81.4,120.1,80.3,120.3z"/>
	<path class="st0" d="M87.6,117.8l0.8,1.9L87.6,117.8c-1,0.4-1.5,1.6-1.1,2.7c0.3,0.8,1.1,1.2,1.9,1.2c0.3,0,0.5-0.1,0.8-0.2
		c0,0,0,0,0,0c1-0.5,1.5-1.6,1-2.7C89.8,117.8,88.6,117.4,87.6,117.8z"/>
	<path class="st0" d="M42,25.7c0.3,0,0.7-0.1,1-0.2c1-0.5,1.4-1.7,0.8-2.7c-0.5-1-1.7-1.4-2.7-0.8l0,0c-1,0.5-1.3,1.7-0.8,2.7
		C40.6,25.3,41.3,25.7,42,25.7z"/>
	<path class="st0" d="M18.6,48.3c0.3,0.2,0.6,0.2,0.9,0.2c0.7,0,1.4-0.4,1.8-1.1l0-0.1c0.5-1,0.1-2.2-0.9-2.7
		c-1-0.5-2.2-0.1-2.7,0.9C17.3,46.5,17.7,47.7,18.6,48.3z"/>
	<path class="st0" d="M15.8,55.9c0.2,0.1,0.4,0.1,0.6,0.1c0.8,0,1.6-0.5,1.9-1.4l0-0.1c0.3-1.1-0.3-2.2-1.3-2.5
		c-1.1-0.3-2.2,0.3-2.5,1.3C14.2,54.4,14.7,55.5,15.8,55.9z"/>
	<path class="st0" d="M22.6,41.2c0.4,0.3,0.8,0.4,1.2,0.4c0.6,0,1.2-0.3,1.6-0.8l0,0c0.6-0.9,0.4-2.2-0.5-2.8
		c-0.9-0.6-2.2-0.4-2.8,0.5l1.6,1.2l-1.6-1.2C21.5,39.3,21.7,40.5,22.6,41.2z"/>
	<path class="st0" d="M35.2,30.1c0.4,0,0.9-0.1,1.2-0.4c0.9-0.7,1.1-1.9,0.4-2.8c-0.7-0.9-1.9-1.1-2.8-0.4l-0.1,0
		c-0.9,0.7-1.1,1.9-0.4,2.8C33.9,29.8,34.5,30.1,35.2,30.1z"/>
	<path class="st0" d="M14,86.5c0.3,0.9,1.1,1.4,1.9,1.4c0.2,0,0.4,0,0.6-0.1c1.1-0.3,1.7-1.4,1.3-2.5c-0.3-1.1-1.4-1.7-2.5-1.4
		C14.3,84.2,13.7,85.3,14,86.5C14,86.4,14,86.5,14,86.5z"/>
	<path class="st0" d="M29.1,35.4c0.5,0,1.1-0.2,1.4-0.6c0.8-0.8,0.8-2.1,0-2.9c-0.8-0.8-2.1-0.8-2.9,0l0,0c-0.8,0.8-0.8,2.1,0,2.9
		C28,35.2,28.5,35.4,29.1,35.4z"/>
	<path class="st0" d="M16.2,77.7c-0.1-1.1-1.1-1.9-2.2-1.7c-1.1,0.1-1.9,1.1-1.8,2.2l0,0.1c0.1,1,1,1.7,2,1.7c0.1,0,0.2,0,0.3,0
		C15.6,79.8,16.4,78.8,16.2,77.7z"/>
	<path class="st0" d="M13.7,71.9C13.7,71.9,13.7,71.9,13.7,71.9c1.1,0,2-0.9,2.1-2l0-0.1c0-1.1-0.9-2-2-2c-1.1,0-2,0.9-2,2
		C11.7,70.9,12.6,71.9,13.7,71.9z"/>
	<path class="st0" d="M14.1,63.8c0.1,0,0.2,0,0.4,0c1,0,1.8-0.7,2-1.7c0,0,0-0.1,0-0.1c0.2-1.1-0.6-2.1-1.7-2.3
		c-1.1-0.2-2.1,0.6-2.3,1.7C12.3,62.6,13,63.6,14.1,63.8z"/>
	<path class="st0" d="M109.5,41.8c0.4,0.6,1,0.9,1.7,0.9c0.4,0,0.8-0.1,1.1-0.4c0.9-0.6,1.2-1.9,0.5-2.8l-1.7,1.1l1.7-1.1
		c-0.6-0.9-1.9-1.2-2.8-0.5C109,39.6,108.8,40.9,109.5,41.8L109.5,41.8z"/>
	<path class="st0" d="M119.8,62.2c-1.1,0.1-1.9,1.1-1.8,2.2l0,0.1c0.1,1,1,1.7,2,1.7c0.1,0,0.2,0,0.3,0c1.1-0.2,1.9-1.2,1.7-2.3
		C121.9,62.8,120.9,62,119.8,62.2z"/>
	<path class="st0" d="M116.4,56.5L116.4,56.5c0.3,0.9,1.1,1.5,1.9,1.5c0.2,0,0.4,0,0.6-0.1c1.1-0.3,1.7-1.4,1.4-2.5l0,0
		c-0.3-1.1-1.4-1.7-2.5-1.4C116.7,54.3,116,55.4,116.4,56.5z"/>
	<path class="st0" d="M113.5,48.9c0.4,0.7,1.1,1.1,1.8,1.1c0.3,0,0.6-0.1,0.9-0.2c1-0.5,1.4-1.7,0.9-2.7l-1.8,0.9l1.8-0.9
		c-0.5-1-1.7-1.4-2.7-1C113.4,46.6,113,47.8,113.5,48.9L113.5,48.9z"/>
	<path class="st0" d="M104.4,35.5c0.4,0.4,0.9,0.6,1.4,0.6c0.5,0,1-0.2,1.4-0.6c0.8-0.8,0.8-2,0-2.8c-0.8-0.8-2-0.9-2.9-0.1
		C103.6,33.4,103.5,34.6,104.4,35.5L104.4,35.5z"/>
	<path class="st0" d="M120.4,70.6c-1.1,0-2,0.8-2.1,2c-0.1,1.1,0.8,2,1.9,2.1c0,0,0.1,0,0.1,0c1.1,0,2-0.8,2-1.9l0-0.1
		C122.4,71.6,121.5,70.6,120.4,70.6z"/>
	<path class="st0" d="M91.4,25.6L91.4,25.6c0.3,0.2,0.7,0.3,1,0.3c0.7,0,1.4-0.4,1.8-1.1c0.5-1,0.2-2.2-0.8-2.7l-1,1.8l1-1.8
		c-1-0.5-2.2-0.2-2.7,0.8C90.1,23.8,90.5,25.1,91.4,25.6z"/>
	<path class="st0" d="M98.3,30L98.3,30c0.4,0.3,0.8,0.4,1.3,0.4c0.6,0,1.2-0.3,1.6-0.8c0.7-0.9,0.5-2.2-0.4-2.8l0,0
		c-0.9-0.7-2.2-0.5-2.8,0.4C97.2,28.1,97.4,29.3,98.3,30z"/>
	<path class="st1" d="M137.2,101.2l-9.5-9.5c-0.8-0.8-1.9-1.3-3-1.3c-1.1,0-2.2,0.4-3,1.3l-0.2,0.2l-0.6-0.6
		c-0.8-0.8-1.4-1.7-1.8-2.6c0-0.1-0.1-0.3-0.1-0.4c-0.3-0.9-0.5-1.8-0.5-2.7v-2.7c0.2,0.1,0.4,0.2,0.6,0.2c0.1,0,0.2,0,0.3,0
		c1,0,1.8-0.7,2-1.7c0.2-1.1-0.5-2.2-1.6-2.4c-0.5-0.1-1,0-1.4,0.2c-0.1-2.9-1.3-5.6-3.3-7.6l-9.2-9.2c-2.1-2.1-4.8-3.2-7.7-3.2
		c-2.3,0-4.4,0.7-6.2,2l-1-1V37.1c0-2.8-1-5.5-2.8-7.6c-1.3-1.5-2-3.4-2-5.4v-1.7h0.1c2.4,0,4.3-1.9,4.3-4.3V4.7
		c0-2.4-1.9-4.3-4.3-4.3H48.5c-2.4,0-4.3,1.9-4.3,4.3v13.4c0,2.4,1.9,4.3,4.3,4.3h0.3v0.9c0,2.2-0.8,4.2-2.4,5.8l-4.1,4.1
		c-2.2,2.2-3.4,5-3.4,8.1v13c0,1.8,0.4,3.4,1.2,4.9c-2.7,0.2-5.2,1.3-7.1,3.2l-9.2,9.2c-2.2,2.2-3.4,5-3.4,8.1v5.8
		c0,2.2-0.8,4.2-2.4,5.8l-0.6,0.6c0,0,0,0,0,0l-0.2-0.2c-0.8-0.8-1.9-1.3-3-1.3c-1.1,0-2.2,0.4-3,1.3l-9.5,9.5c-1.7,1.7-1.7,4.4,0,6
		l3.2,3.3c0.8,0.8,2.1,0.8,2.9,0c0.8-0.8,0.8-2.1,0-2.9l-3.2-3.3c-0.1-0.1-0.1-0.2,0-0.3l9.5-9.5c0.1-0.1,0.2-0.1,0.3,0l1.6,1.7h0
		l22.5,22.6l2.5,2.5c0.1,0.1,0.1,0.2,0,0.3l-9.5,9.5c-0.1,0.1-0.2,0.1-0.3,0l-17.7-17.8c-0.8-0.8-2.1-0.8-2.9,0
		c-0.8,0.8-0.8,2.1,0,2.9L28.5,134c0.8,0.8,1.9,1.3,3,1.3c1.1,0,2.2-0.4,3-1.3l9.5-9.5c1.7-1.7,1.7-4.4,0-6l-0.1-0.1l1.2-1.2
		c1.4-1.4,3.3-2.2,5.2-2.4c2.8-0.2,5.4-1.4,7.4-3.3l8.7-8.7c2.5-0.7,4.5-2.7,5-5.3c0.9,0.4,1.9,0.7,3,0.7c3.8,0,6.9-3.1,6.9-6.9
		v-4.8c0.9,0.4,1.8,0.6,2.9,0.6c3.8,0,6.9-3.1,6.9-6.9V65.9l6.2,6.2c0.4,0.4,0.9,0.6,1.4,0.6c0.5,0,1-0.2,1.4-0.6
		c0.8-0.8,0.8-2.1,0-2.9l-5.2-5.2c1-0.6,2.1-0.8,3.3-0.8c1.8,0,3.6,0.7,4.9,2l9.2,9.2c1.4,1.4,2.2,3.3,2.2,5.3v5.8
		c0,3.3,1.3,6.3,3.6,8.6l0.6,0.6l-2.9,2.9L98,115.5l-1-1c0,0,0,0,0,0l-0.2-0.2c-2.1-2.1-4.9-3.4-7.8-3.5c-1.8-0.1-3.5-0.9-4.8-2.2
		l-6.6-6.6c-0.8-0.8-2.1-0.8-2.9,0c-0.8,0.8-0.8,2.1,0,2.9l6.6,6.6c2,2,4.6,3.2,7.4,3.3c2,0.1,3.8,1,5.2,2.4l0.1,0.1
		c0.1,0.1,0.1,0.1,0.2,0.2l0.9,0.9l-0.1,0.1c-1.7,1.7-1.7,4.4,0,6l9.5,9.5c0.8,0.8,1.9,1.3,3,1.3c1.1,0,2.2-0.4,3-1.3l26.7-26.7
		C138.9,105.6,138.9,102.9,137.2,101.2z M119.8,81.1L119.8,81.1l-0.4-0.1L119.8,81.1z M54.8,108.6c-1.3,1.3-3,2-4.8,2.2
		c-3,0.2-5.7,1.5-7.8,3.5l-1.2,1.2l-1.1-1.1c0,0,0,0,0,0L20.4,94.8l0.6-0.6c2.3-2.3,3.6-5.4,3.6-8.6v-5.8c0-2,0.8-3.8,2.2-5.3
		l9.2-9.2c1.3-1.3,3-2,4.9-2c1.2,0,2.3,0.3,3.3,0.9l-5.2,5.2c-0.8,0.8-0.8,2.1,0,2.9c0.4,0.4,0.9,0.6,1.4,0.6c0.5,0,1-0.2,1.4-0.6
		L48,66v25.2c0,3.8,3.1,6.9,6.9,6.9c1.1,0,2.1-0.2,3-0.7c0.4,2,1.7,3.7,3.4,4.7L54.8,108.6z M86.9,80.1c0,1.6-1.3,2.9-2.9,2.9
		c-1.6,0-2.9-1.3-2.9-2.9V57.6c0-1.1-0.9-2-2-2s-2,0.9-2,2v33.6c0,1.6-1.3,2.9-2.9,2.9c-1.4,0-2.6-1-2.8-2.4V57.5c0-1.1-0.9-2-2-2
		c-0.4,0-0.7,0.1-1,0.3c-0.6,0.3-1.1,1-1.1,1.8v33.6c0,0.3,0,0.5,0,0.8V96c0,1.6-1.3,2.9-2.9,2.9c-1.6,0-2.8-1.3-2.8-2.9V57.5
		c0-1.1-0.9-2-2-2c-1.1,0-2,0.9-2,2v33.7c0,1.6-1.3,2.9-2.8,2.9c-1.6,0-2.9-1.3-2.9-2.9V53.6c0-1.1-0.9-2-2-2c-1.1,0-2,0.9-2,2v7
		c-0.2,0.1-0.3,0.1-0.5,0.2c-2.6-1-4.5-3.5-4.5-6.5v-13c0-2,0.8-3.8,2.2-5.3l4.1-4.1c2.3-2.3,3.6-5.4,3.6-8.6v-0.9h4.1
		c1.1,0,2-0.9,2-2c0-1.1-0.9-2-2-2h-8.4c-0.1,0-0.2-0.1-0.2-0.2V4.7c0-0.1,0.1-0.2,0.2-0.2h37.7c0.1,0,0.2,0.1,0.2,0.2v13.4
		c0,0.1-0.1,0.2-0.2,0.2H66.4c-1.1,0-2,0.9-2,2c0,1.1,0.9,2,2,2h15.7v1.7c0,3,1.1,5.8,3,8c1.2,1.4,1.8,3.1,1.8,4.9V80.1z
		 M134.4,104.4l-26.7,26.7c0,0-0.1,0.1-0.2,0.1c-0.1,0-0.1,0-0.2-0.1l-9.5-9.5c-0.1-0.1-0.1-0.2,0-0.3l1.5-1.5l0,0l15.5-15.5
		l9.7-9.7c0.1-0.1,0.2-0.1,0.3,0l9.5,9.5C134.5,104.1,134.5,104.3,134.4,104.4z"/>
	<path class="st0" d="M54.9,9.3c-1.2,0-2.2,1-2.2,2.2c0,1.2,1,2.2,2.2,2.2c1.2,0,2.2-1,2.2-2.2C57,10.2,56.1,9.3,54.9,9.3z"/>
	<path class="st0" d="M125.4,101.4c-1.2,0-2.2,1-2.2,2.2c0,1.2,1,2.2,2.2,2.2c1.2,0,2.2-1,2.2-2.2
		C127.5,102.4,126.6,101.4,125.4,101.4z"/>
	<path class="st0" d="M34.2,122c0-1.2-1-2.2-2.2-2.2c-1.2,0-2.2,1-2.2,2.2c0,1.2,1,2.2,2.2,2.2C33.2,124.2,34.2,123.2,34.2,122z"/>
</g>
</svg>
