<svg xmlns="http://www.w3.org/2000/svg" width="480" height="74.193" viewBox="0 0 480 74.193">
  <g id="LOGO_SLOGAN_RU" data-name="LOGO+SLOGAN_RU" transform="translate(-64 -39)">
    <g id="Group_10138" data-name="Group 10138" transform="translate(64 39)">
      <path id="Path_3712" data-name="Path 3712" d="M191.1,12.812a6.921,6.921,0,0,1,7.6,6.562v.863c0,4.49-2.936,7.08-7.6,7.08h-9.325v7.253H177.8V12.812Zm.173,10.706a3.251,3.251,0,0,0,3.454-2.936v-.518a3.483,3.483,0,0,0-3.108-3.8H181.6v7.253Z" transform="translate(124.978 8.788)"/>
      <path id="Path_3713" data-name="Path 3713" d="M203.806,35.194c-6.907,0-12.606-4.662-12.606-11.4s5.7-11.4,12.606-11.4,12.606,4.662,12.606,11.4-5.7,11.4-12.606,11.4m0-19.168a7.908,7.908,0,0,0-8.461,7.253V23.8c0,4.49,3.281,7.771,8.461,7.771s8.461-3.281,8.461-7.771-3.281-7.771-8.461-7.771" transform="translate(134.354 8.515)"/>
      <path id="Path_3714" data-name="Path 3714" d="M220.706,35.2c-7.253,0-12.606-4.662-12.606-11.4s5.526-11.4,12.606-11.4a15.207,15.207,0,0,1,10.015,3.281L228.649,18.8a12.928,12.928,0,0,0-7.771-2.763c-5.353,0-8.634,3.281-8.634,7.6s3.281,7.771,8.634,7.771a12.884,12.884,0,0,0,7.943-2.59l2.072,3.108A17.438,17.438,0,0,1,220.706,35.2" transform="translate(146.256 8.508)"/>
      <path id="Path_3715" data-name="Path 3715" d="M244.134,29.1l-2.418,5.18H237.4L247.933,12.7h4.144l10.533,21.585h-4.317l-2.418-5.18Zm1.727-3.454h8.289l-4.144-8.807Z" transform="translate(166.103 8.733)"/>
      <path id="Path_3716" data-name="Path 3716" d="M271.831,34.385V25.06h-14.16v9.325H253.7V12.8h3.972v8.807h14.16V12.8H275.8V34.385Z" transform="translate(177.95 8.801)"/>
      <path id="Path_3717" data-name="Path 3717" d="M270,34.385V12.8h3.972V22.815L284.851,12.8h4.835L278.634,23.161,290.2,34.385h-5.353L273.972,23.852V34.385Z" transform="translate(189.796 8.801)"/>
      <path id="Path_3718" data-name="Path 3718" d="M237.269,20.643h-9.325v-4.49h15.369V12.7H223.8V34.285h13.3c4.662,0,7.943-2.59,7.943-6.907s-2.936-6.735-7.771-6.735m.345,10.015h-9.67V24.27h9.67c2.418,0,3.972,1.381,3.972,3.281s-1.209,3.281-3.972,3.108" transform="translate(157.308 8.733)"/>
      <rect id="Rectangle_2047" data-name="Rectangle 2047" width="43.343" height="22.103" transform="translate(245.556 11.052)" fill="#e9041e"/>
      <rect id="Rectangle_2048" data-name="Rectangle 2048" width="43.343" height="21.585" transform="translate(245.556 32.064)"/>
      <rect id="Rectangle_2049" data-name="Rectangle 2049" width="28.147" height="2.59" transform="translate(252.997 30.9)" fill="#fff"/>
      <path id="Path_3738" data-name="Path 3738" d="M0,0H23.312V6.044H7.771v4.49h7.253a11.446,11.446,0,0,1,7.771,2.245,7.294,7.294,0,0,1,2.763,6.216,7.572,7.572,0,0,1-3.108,6.562,13.481,13.481,0,0,1-8.461,2.418H0ZM13.469,22.448a5.328,5.328,0,0,0,3.108-.863,2.784,2.784,0,0,0,1.036-2.245c0-1.9-1.381-2.936-4.144-2.936h-5.7v6.044Z"/>
      <path id="Path_3739" data-name="Path 3739" d="M44.283,0,32.713,21.585a14.927,14.927,0,0,1-4.49,5.353,10.167,10.167,0,0,1-5.871,1.727,12.387,12.387,0,0,1-5.008-1.036l1.9-5.871a7.821,7.821,0,0,0,2.763.518,4.6,4.6,0,0,0,2.072-.518,5.488,5.488,0,0,0,1.727-1.727L15.1,0h8.289l6.562,13.469L36.685,0Z" transform="translate(10.975)"/>
      <path id="Path_3740" data-name="Path 3740" d="M62.564,21.758V33.673H55.311v-5.7H37.353v5.7H30.1V21.758h1.036c1.727,0,2.763-1.209,3.454-3.454A36.214,36.214,0,0,0,35.8,8.634L36.144,0H58.765V21.758ZM42.015,16.923a12.532,12.532,0,0,1-1.727,4.835H50.822V6.389H42.878V9.5A54.36,54.36,0,0,1,42.015,16.923Z" transform="translate(21.877 0)"/>
      <path id="Path_3741" data-name="Path 3741" d="M78.383,0,66.813,21.585a14.927,14.927,0,0,1-4.49,5.353,10.167,10.167,0,0,1-5.871,1.727,12.387,12.387,0,0,1-5.008-1.036l1.9-5.871a7.821,7.821,0,0,0,2.763.518,4.6,4.6,0,0,0,2.072-.518,5.488,5.488,0,0,0,1.727-1.727L49.2,0h8.289L64.05,13.469,70.785,0Z" transform="translate(34.562)"/>
      <path id="Path_3742" data-name="Path 3742" d="M104.79,21.758V0H96.846V21.758h-7.08V0H81.823V21.758H74.571V0H66.8V27.974h34.363v5.7h7.253V21.758Z" transform="translate(46.88)"/>
      <path id="Path_3743" data-name="Path 3743" d="M115.148,21.93v6.044H92.7V0h21.93V6.044h-14.16v4.662H112.9v5.871H100.471v5.18Z" transform="translate(65.153)"/>
      <path id="Path_3744" data-name="Path 3744" d="M130.121,21.93v6.044H107.5V0h21.93V6.044h-14.16v4.662H127.7v5.871H115.271v5.18Z" transform="translate(75.554)"/>
      <path id="Path_3745" data-name="Path 3745" d="M123.3,6.7h20.031v4.49H123.3Z" transform="translate(86.675 4.67)"/>
      <path id="Path_3746" data-name="Path 3746" d="M62.658,22.8a12.485,12.485,0,0,1,5.18,5.18,15.494,15.494,0,0,1,0,15.023,12.485,12.485,0,0,1-5.18,5.18,16.508,16.508,0,0,1-7.6,1.9A18.949,18.949,0,0,1,48.153,48.7a13.056,13.056,0,0,1-5.18-3.972l5.008-4.49a8.509,8.509,0,0,0,6.735,3.281,7.556,7.556,0,0,0,4.317-1.381,6.9,6.9,0,0,0,2.418-3.8H51.261V32.47H61.277a6.483,6.483,0,0,0-2.418-3.626,7.556,7.556,0,0,0-4.317-1.381,8.766,8.766,0,0,0-6.735,3.281L42.8,26.253a13.056,13.056,0,0,1,5.18-3.972A18.949,18.949,0,0,1,54.888,20.9,16.17,16.17,0,0,1,62.658,22.8Z" transform="translate(30.071 13.965)"/>
      <path id="Path_3747" data-name="Path 3747" d="M83.539,27.516H74.9V49.274H67.134V27.516H58.5V21.3H83.539Z" transform="translate(41.108 14.256)"/>
      <path id="Path_3748" data-name="Path 3748" d="M80.631,48.2a14.275,14.275,0,0,1-6.044-19.34,14.566,14.566,0,0,1,6.044-6.044,17.211,17.211,0,0,1,15.887,0,14.275,14.275,0,0,1,6.044,19.34A14.566,14.566,0,0,1,96.517,48.2,18.306,18.306,0,0,1,80.631,48.2Zm11.742-5.7a8.446,8.446,0,0,0,2.763-2.763,8.807,8.807,0,0,0,0-8.289,6.111,6.111,0,0,0-2.763-2.763,7.481,7.481,0,0,0-7.6,0,8.445,8.445,0,0,0-2.763,2.763,8.807,8.807,0,0,0,0,8.289A7.084,7.084,0,0,0,84.775,42.5,7.481,7.481,0,0,0,92.373,42.5Z" transform="translate(51.241 13.947)"/>
      <path id="Path_3749" data-name="Path 3749" d="M121.875,37.1a7.026,7.026,0,0,1,1.381,4.144,7.279,7.279,0,0,1-2.936,5.871,13.977,13.977,0,0,1-8.289,2.245H97.7V21.211h13.642a13.369,13.369,0,0,1,7.771,1.9,5.926,5.926,0,0,1,2.763,5.526,6.8,6.8,0,0,1-1.036,3.626,7.392,7.392,0,0,1-2.763,2.418A6.9,6.9,0,0,1,121.875,37.1Zm-16.4-4.662h5.008c2.245,0,3.281-.863,3.281-2.763s-1.209-2.763-3.281-2.763h-5.008Zm9.67,8.289c0-1.9-1.209-2.763-3.454-2.763h-6.216v5.7h6.216c2.245,0,3.454-1.036,3.454-2.936Z" transform="translate(68.651 14.172)"/>
      <path id="Path_3750" data-name="Path 3750" d="M136.376,32.424a8.639,8.639,0,0,1,2.763,6.907,9.435,9.435,0,0,1-3.108,7.425,12.815,12.815,0,0,1-8.634,2.59H114.1V21.2h7.771v8.979h6.562A13.264,13.264,0,0,1,136.376,32.424ZM129.987,42.44a4.161,4.161,0,0,0,1.209-3.108c0-2.418-1.381-3.626-4.317-3.626h-4.835v7.771h5.008A4.689,4.689,0,0,0,129.987,42.44Zm12.26-21.24h7.771V49.347h-7.771Z" transform="translate(80.112 14.183)"/>
      <path id="title" d="M153.285,7.367c-2.1,0-3.511-1.217-3.511-3.029V.217h1.293V4.2c0,1.254.808,1.973,2.218,1.973s2.23-.719,2.23-1.973V.217H156.8V4.338C156.8,6.178,155.422,7.367,153.285,7.367Zm-9.047,0a3.8,3.8,0,0,1-4.063-3.682,4.076,4.076,0,0,1,8.111,0A3.5,3.5,0,0,1,147.1,6.349,4.307,4.307,0,0,1,144.239,7.363Zm0-6.171a2.5,2.5,0,1,0,0,4.987,2.5,2.5,0,1,0,0-4.987ZM127.13,7.351a4.386,4.386,0,0,1-2.92-1.014,3.447,3.447,0,0,1-1.169-2.667c0-2.123,1.72-3.664,4.089-3.664a5.261,5.261,0,0,1,3.251,1.028l-.692,1.017a3.981,3.981,0,0,0-2.522-.825h-.085A2.459,2.459,0,0,0,124.4,3.671a2.5,2.5,0,0,0,2.782,2.462,4.793,4.793,0,0,0,1.994-.413V3.7h1.252V6.4A6.148,6.148,0,0,1,127.13,7.351ZM12.193,7.336a4.337,4.337,0,0,1-2.86-1.007,3.471,3.471,0,0,1-1.2-2.658A3.794,3.794,0,0,1,12.193,0a3.781,3.781,0,0,1,4.035,3.671A3.736,3.736,0,0,1,12.193,7.336Zm0-6.152a2.5,2.5,0,1,0,0,4.982,2.5,2.5,0,1,0,0-4.982ZM59.028,7.332a4.38,4.38,0,0,1-2.913-1.01,3.443,3.443,0,0,1-1.167-2.66C54.948,1.54,56.664,0,59.028,0a5.2,5.2,0,0,1,3.241,1.028l-.686,1.017a3.9,3.9,0,0,0-2.515-.824h-.085a2.453,2.453,0,0,0-2.67,2.442A2.49,2.49,0,0,0,59.089,6.12a4.965,4.965,0,0,0,1.986-.411V3.69h1.252V6.379A6.044,6.044,0,0,1,59.028,7.332Zm-37.517,0A4.375,4.375,0,0,1,18.6,6.322a3.443,3.443,0,0,1-1.167-2.66C17.431,1.54,19.147,0,21.511,0a5.139,5.139,0,0,1,3.238,1.038l-.684,1.016a4,4,0,0,0-2.517-.85,2.506,2.506,0,0,0-2.756,2.458,2.492,2.492,0,0,0,2.774,2.465,4.06,4.06,0,0,0,2.55-.836l.691,1.021A5.31,5.31,0,0,1,21.511,7.332ZM3.626,7.3A6.974,6.974,0,0,1,0,6.374L.5,5.283a6.443,6.443,0,0,0,3.138.844c1.3,0,2.075-.361,2.075-.965,0-.638-1-.8-2.159-.992C1.965,3.911.164,3.616.164,2.043c0-1.231,1.217-2,3.175-2A7.071,7.071,0,0,1,6.579.809L6.068,1.852a7.225,7.225,0,0,0-2.7-.63c-1.22,0-1.864.26-1.864.751,0,.555.923.7,1.991.878,1.586.257,3.56.578,3.56,2.313C7.053,6.484,5.74,7.3,3.626,7.3Zm129.847-.136H132.18V.217h4.488a2.173,2.173,0,0,1,2.409,2.217,2.149,2.149,0,0,1-2.005,2.136l2.08,2.595-1.62,0-1.976-2.559h-2.082V7.167Zm0-5.8V3.453h3.055c.78,0,1.265-.391,1.265-1.02a1.008,1.008,0,0,0-1.125-1.066Zm26.427,5.8h-1.292V.217h4.325a2.3,2.3,0,0,1,2.486,2.364,2.184,2.184,0,0,1-2.486,2.253H159.9V7.166Zm0-5.8h0V3.682h3.109A1.041,1.041,0,0,0,164.1,2.595a1.135,1.135,0,0,0-1.165-1.23H159.9ZM97.632,7.15h-1.4L99.625.215h1.357l3.4,6.931-1.39,0-.8-1.688H98.431l-.8,1.688Zm2.682-5.624L98.965,4.338h2.682ZM90.142,7.149H88.848V.215h4.479a2.165,2.165,0,0,1,2.4,2.209,2.138,2.138,0,0,1-1.994,2.134L95.8,7.145l-1.618,0L92.221,4.593H90.142V7.148Zm0-5.787h0V3.443h3.046c.778,0,1.261-.39,1.261-1.019a1,1,0,0,0-1.123-1.062H90.142ZM73.28,7.149H72.015V.215h1.319L77.87,5.44l.03-.012c-.075-1.378-.081-2.4-.081-3.4V.215h1.256V7.146h-1.3l-4.52-5.223-.022.008c.05,1.028.05,2.818.05,3.406V7.148Zm45.538,0H112.26V.215h6.335V1.362H113.55V3.041h3.921V4.19H113.55V6h5.268V7.146Zm-7.574,0h-5.937V.215H106.6V6h4.648V7.146Zm-23.757,0H80.925V.215h6.338V1.362h-5.05V3.041h3.926V4.19H82.213V6h5.273V7.146Zm-16.852,0H64.072V.215h6.342V1.362H65.361V3.041h3.93V4.19h-3.93V6h5.273V7.146Zm-19.62,0H44.452V.215h6.339V1.362H45.744V3.041h3.924V4.19H45.744V6h5.27V7.146Zm-11.73,0,0-5.8h-2.84V.215H43.4V1.349H40.572v5.8H39.284Zm-3.418,0H29.306V.215h6.34V1.362H30.6V3.041h3.928V4.19H30.6V6h5.272V7.146Zm-9.686,0,0-6.932h1.29V7.146H26.181Z" transform="translate(245.56 66.826)"/>
    </g>
  </g>
</svg>
