<?xml version="1.0" encoding="utf-8"?>
<!-- Generator: Adobe Illustrator 20.1.0, SVG Export Plug-In . SVG Version: 6.00 Build 0)  -->
<svg version="1.1" id="Слой_1" xmlns="http://www.w3.org/2000/svg" xmlns:xlink="http://www.w3.org/1999/xlink" x="0px" y="0px"
	 viewBox="0 0 136 135.7" style="enable-background:new 0 0 136 135.7;" xml:space="preserve">
<style type="text/css">
	.st0{fill:#7E7C7C;}
	.st1{fill:#CFCFCF;}
</style>
<g>
	<g>
		<g>
			<g>
				<circle class="st0" cx="91.5" cy="84.2" r="3.3"/>
			</g>
		</g>
		<g>
			<g>
				<circle class="st0" cx="106.5" cy="84.2" r="3.3"/>
			</g>
		</g>
		<g>
			<g>
				<path class="st0" d="M118.6,111c0-10.8-8.8-19.7-19.7-19.7s-19.7,8.8-19.7,19.7c0,1.1,0.9,2,2,2s2-0.9,2-2
					c0-8.7,7-15.7,15.7-15.7s15.7,7,15.7,15.7c0,1.1,0.9,2,2,2S118.6,112,118.6,111z"/>
			</g>
		</g>
		<path class="st1" d="M133.2,86.7c-0.4-1-1.6-1.5-2.6-1.1c-1,0.4-1.5,1.5-1.1,2.5c0,0,0,0,0,0c5.8,16.8-3.2,35.2-20.1,41
			c-16.8,5.8-35.2-3.1-41-20.1C60.3,85.3,81.3,61.9,105.5,67c8.5,1.8,16.2,7,20.8,14.4c0.6,0.9,1.8,1.2,2.7,0.6
			c0.9-0.6,1.2-1.8,0.6-2.7c-4.6-7.3-11.7-12.8-20.2-15.4c0.9-0.8,1.7-1.5,2.5-2.4c0.8-0.8,0.7-2-0.1-2.8c-0.8-0.8-2-0.7-2.8,0.1
			c-1.4,1.5-2.9,2.8-4.5,4c-9.5-1.5-18.9,0.9-26.4,6.1H43.6c-0.8,0-1.5,0.5-1.8,1.2L31.1,94.2c-2,4.4-8.5,3-8.5-1.8v-2.3h0V70.5h0
			v-3.7c0-0.7-0.4-1.4-1-1.7C11.1,59.4,4.7,48.6,4.7,36.8c0-17.7,14.4-32,32-32h49.2c24.7,0,40.1,26.9,27.7,48.1
			c-0.6,0.9-0.2,2.2,0.7,2.7c0.9,0.5,2.2,0.2,2.7-0.7c13.9-23.8-3.4-54-31.1-54H36.7c-19.9,0-36,16.1-36,36
			c0,12.8,6.8,24.6,17.9,31.1v2.5h0v19.7h0v2.3c0,8.9,12.3,11.7,16.1,3.4l10.2-23h28.6c-9.8,9.7-13.4,24.2-8.8,37.5
			c5,14.6,18.8,24.5,34.3,24.5C124.3,134.8,141.4,109.6,133.2,86.7z"/>
		<g>
			<path class="st0" d="M25.8,39.9h-0.3c-0.5,0-0.8-0.1-1.1-0.4c-0.3-0.3-0.4-0.6-0.4-1.1c0-0.2,0-0.4,0.1-0.6
				c0.1-0.2,0.2-0.4,0.3-0.5c0.1-0.2,0.3-0.3,0.5-0.4c0.2-0.1,0.4-0.1,0.6-0.1h1l0.5-2.3h-0.3c-0.4,0-0.8-0.1-1-0.4
				s-0.4-0.7-0.4-1.2c0-0.2,0-0.4,0.1-0.6c0.1-0.2,0.2-0.4,0.3-0.5c0.1-0.1,0.3-0.3,0.5-0.4c0.2-0.1,0.4-0.1,0.6-0.1h1l0.5-2.2
				c0-0.2,0.1-0.3,0.2-0.5s0.2-0.3,0.4-0.4s0.3-0.2,0.5-0.3c0.2-0.1,0.4-0.1,0.6-0.1c0.2,0,0.5,0,0.7,0.1c0.2,0.1,0.4,0.2,0.5,0.4
				c0.1,0.2,0.2,0.3,0.3,0.5s0.1,0.4,0.1,0.7c0,0.1,0,0.2,0,0.3s0,0.2,0,0.3l-0.3,1.1h2.1l0.5-2c0-0.2,0.1-0.4,0.2-0.5
				c0.1-0.2,0.2-0.3,0.4-0.4s0.3-0.2,0.5-0.3c0.2-0.1,0.4-0.1,0.6-0.1c0.2,0,0.5,0,0.7,0.1c0.2,0.1,0.4,0.2,0.5,0.4
				c0.1,0.1,0.2,0.3,0.3,0.5c0.1,0.2,0.1,0.4,0.1,0.7c0,0.1,0,0.2,0,0.3c0,0.1,0,0.2,0,0.3l-0.3,1.1h0.2c0.5,0,0.8,0.1,1.1,0.4
				c0.3,0.3,0.4,0.7,0.4,1.2c0,0.2,0,0.4-0.1,0.6c-0.1,0.2-0.2,0.4-0.3,0.5c-0.1,0.1-0.3,0.3-0.5,0.4c-0.2,0.1-0.4,0.1-0.6,0.1h-1
				l-0.6,2.3H36c0.5,0,0.8,0.1,1.1,0.4c0.3,0.3,0.4,0.7,0.4,1.1c0,0.2,0,0.5-0.1,0.7c-0.1,0.2-0.2,0.4-0.3,0.5
				c-0.1,0.2-0.3,0.3-0.5,0.4c-0.2,0.1-0.4,0.1-0.6,0.1h-1.2l-0.6,2.3c-0.1,0.4-0.3,0.6-0.6,0.8c-0.3,0.2-0.6,0.3-1,0.3
				c-0.3,0-0.5,0-0.7-0.1s-0.4-0.2-0.5-0.3c-0.1-0.1-0.3-0.3-0.3-0.5S31,42,31,41.8c0-0.1,0-0.2,0.1-0.4l0.4-1.5h-2.2l-0.6,2.3
				c-0.1,0.4-0.3,0.6-0.6,0.8s-0.6,0.3-1,0.3c-0.5,0-0.9-0.1-1.2-0.4c-0.3-0.3-0.4-0.6-0.4-1c0-0.1,0-0.3,0-0.4L25.8,39.9z M30,36.7
				h2.1l0.5-2.3h-2.1L30,36.7z"/>
			<path class="st0" d="M40.5,29.3c0-0.2,0-0.4,0.1-0.6c0.1-0.2,0.2-0.4,0.3-0.5c0.1-0.1,0.3-0.3,0.5-0.3c0.2-0.1,0.4-0.1,0.6-0.1
				c0.2,0,0.4,0,0.6,0.1c0.2,0.1,0.4,0.2,0.5,0.3s0.3,0.3,0.3,0.5c0.1,0.2,0.1,0.4,0.1,0.6v8.4c0,0.2,0,0.4-0.1,0.6
				c-0.1,0.2-0.2,0.4-0.3,0.5s-0.3,0.3-0.5,0.3s-0.4,0.1-0.6,0.1s-0.4,0-0.6-0.1c-0.2-0.1-0.4-0.2-0.5-0.3s-0.2-0.3-0.3-0.5
				c-0.1-0.2-0.1-0.4-0.1-0.6V29.3z M40.5,41.8c0-0.2,0-0.4,0.1-0.6c0.1-0.2,0.2-0.4,0.4-0.5c0.1-0.2,0.3-0.3,0.5-0.4
				s0.4-0.1,0.6-0.1s0.4,0,0.6,0.1s0.4,0.2,0.5,0.4c0.2,0.2,0.3,0.3,0.4,0.5c0.1,0.2,0.1,0.4,0.1,0.6c0,0.2,0,0.4-0.1,0.6
				c-0.1,0.2-0.2,0.4-0.4,0.5c-0.2,0.2-0.3,0.3-0.5,0.4s-0.4,0.1-0.6,0.1s-0.4,0-0.6-0.1s-0.4-0.2-0.5-0.4c-0.1-0.2-0.3-0.3-0.4-0.5
				C40.6,42.2,40.5,42,40.5,41.8z"/>
			<path class="st0" d="M46.2,40.5c-0.1-0.3-0.2-0.6-0.2-0.8c0-0.2,0-0.4,0.1-0.6c0.1-0.2,0.2-0.4,0.4-0.5c0.1-0.1,0.3-0.2,0.5-0.3
				c0.2-0.1,0.4-0.1,0.6-0.1c0.3,0,0.5,0.1,0.7,0.2s0.5,0.4,0.7,0.7c0.3,0.4,0.7,0.8,1.2,1c0.4,0.2,1,0.3,1.6,0.3
				c0.3,0,0.6,0,0.9-0.1s0.5-0.2,0.8-0.3c0.2-0.1,0.4-0.3,0.5-0.5c0.1-0.2,0.2-0.4,0.2-0.7c0-0.3-0.1-0.6-0.2-0.7
				c-0.1-0.2-0.3-0.3-0.5-0.4s-0.5-0.2-0.7-0.2s-0.5-0.1-0.8-0.1c-0.9-0.1-1.7-0.3-2.4-0.6c-0.7-0.3-1.3-0.6-1.8-1
				c-0.5-0.4-0.9-0.9-1.1-1.4c-0.3-0.5-0.4-1.1-0.4-1.8c0-0.7,0.1-1.4,0.4-1.9c0.3-0.6,0.7-1.1,1.2-1.5s1.1-0.8,1.7-1
				c0.7-0.2,1.4-0.4,2.1-0.4c0.5,0,1,0,1.5,0.2c0.5,0.1,0.9,0.2,1.4,0.4c0.4,0.2,0.8,0.4,1.2,0.7c0.3,0.3,0.6,0.6,0.9,1
				c0.1,0.1,0.1,0.2,0.1,0.3s0,0.2,0,0.3c0,0.2,0,0.4-0.1,0.6c-0.1,0.2-0.2,0.3-0.3,0.5c-0.1,0.1-0.3,0.2-0.5,0.3
				c-0.2,0.1-0.4,0.1-0.6,0.1c-0.2,0-0.3,0-0.5-0.1s-0.3-0.1-0.5-0.2c-0.2-0.1-0.4-0.3-0.6-0.4c-0.2-0.1-0.3-0.2-0.5-0.3
				c-0.2-0.1-0.4-0.1-0.6-0.2c-0.2,0-0.5-0.1-0.8-0.1c-0.4,0-0.7,0-1,0.1c-0.3,0.1-0.5,0.2-0.7,0.3s-0.3,0.3-0.4,0.5
				c-0.1,0.2-0.2,0.4-0.2,0.7c0,0.3,0.1,0.5,0.2,0.7c0.2,0.2,0.4,0.3,0.7,0.5c0.3,0.1,0.7,0.2,1.1,0.3c0.4,0.1,0.9,0.2,1.5,0.3
				c0.6,0.1,1.1,0.3,1.6,0.5c0.5,0.2,1,0.5,1.4,0.8c0.4,0.3,0.7,0.8,1,1.3c0.3,0.5,0.4,1.1,0.4,1.8c0,0.7-0.1,1.3-0.4,1.9
				c-0.3,0.6-0.7,1.1-1.2,1.6c-0.5,0.4-1.1,0.8-1.8,1.1c-0.7,0.3-1.5,0.4-2.3,0.4c-0.6,0-1.2-0.1-1.8-0.2c-0.6-0.2-1.1-0.4-1.6-0.7
				c-0.5-0.3-0.9-0.6-1.3-1C46.7,41.3,46.4,40.9,46.2,40.5z M50.4,26.9c0-0.2,0-0.4,0.1-0.5c0.1-0.2,0.2-0.3,0.3-0.4
				c0.1-0.1,0.3-0.2,0.4-0.3c0.2-0.1,0.3-0.1,0.5-0.1c0.2,0,0.4,0,0.5,0.1c0.2,0.1,0.3,0.2,0.4,0.3c0.1,0.1,0.2,0.3,0.3,0.4
				c0.1,0.2,0.1,0.3,0.1,0.5v1.6h-2.7V26.9z M50.4,42.5h2.7v1.8c0,0.2,0,0.4-0.1,0.5c-0.1,0.2-0.2,0.3-0.3,0.4
				c-0.1,0.1-0.3,0.2-0.4,0.3s-0.3,0.1-0.5,0.1c-0.2,0-0.4,0-0.5-0.1s-0.3-0.2-0.4-0.3c-0.1-0.1-0.2-0.3-0.3-0.4
				c-0.1-0.2-0.1-0.3-0.1-0.5V42.5z"/>
			<path class="st0" d="M62.8,36.2c-0.6,0-1.1-0.1-1.7-0.3s-1-0.5-1.4-0.9c-0.4-0.4-0.7-0.8-0.9-1.4s-0.3-1.1-0.3-1.7
				c0-0.6,0.1-1.1,0.3-1.7s0.5-1,0.9-1.4c0.4-0.4,0.8-0.7,1.4-0.9s1.1-0.3,1.7-0.3s1.1,0.1,1.7,0.3c0.5,0.2,1,0.5,1.4,0.9
				c0.4,0.4,0.7,0.8,0.9,1.4s0.3,1.1,0.3,1.7c0,0.6-0.1,1.1-0.3,1.7s-0.5,1-0.9,1.4c-0.4,0.4-0.8,0.7-1.4,0.9
				C63.9,36,63.3,36.2,62.8,36.2z M61.4,31.9c0,0.2,0,0.4,0.1,0.5s0.2,0.3,0.3,0.4c0.1,0.1,0.3,0.2,0.4,0.3c0.2,0.1,0.3,0.1,0.5,0.1
				c0.2,0,0.4,0,0.5-0.1c0.2-0.1,0.3-0.2,0.4-0.3c0.1-0.1,0.2-0.3,0.3-0.4c0.1-0.2,0.1-0.3,0.1-0.5c0-0.2,0-0.4-0.1-0.5
				c-0.1-0.2-0.2-0.3-0.3-0.4c-0.1-0.1-0.3-0.2-0.4-0.3c-0.2-0.1-0.3-0.1-0.5-0.1c-0.2,0-0.4,0-0.5,0.1c-0.2,0.1-0.3,0.2-0.4,0.3
				c-0.1,0.1-0.2,0.3-0.3,0.4C61.5,31.5,61.4,31.7,61.4,31.9z M70,28.5c0.1-0.3,0.3-0.5,0.6-0.6s0.5-0.2,0.8-0.2
				c0.2,0,0.4,0,0.6,0.1c0.2,0.1,0.3,0.2,0.4,0.3c0.1,0.1,0.2,0.3,0.3,0.5c0.1,0.2,0.1,0.4,0.1,0.6c0,0.1,0,0.2,0,0.3
				c0,0.1-0.1,0.2-0.1,0.3l-6,12.7c-0.1,0.3-0.3,0.5-0.5,0.6c-0.2,0.1-0.5,0.2-0.7,0.2c-0.2,0-0.4,0-0.6-0.1s-0.3-0.2-0.4-0.3
				c-0.1-0.1-0.2-0.3-0.3-0.5c-0.1-0.2-0.1-0.3-0.1-0.5c0-0.2,0-0.4,0.1-0.6L70,28.5z M74.1,43.5c-0.6,0-1.1-0.1-1.7-0.3
				s-1-0.5-1.4-0.9c-0.4-0.4-0.7-0.8-0.9-1.4c-0.2-0.5-0.3-1.1-0.3-1.7c0-0.6,0.1-1.1,0.3-1.7c0.2-0.5,0.5-1,0.9-1.4
				c0.4-0.4,0.8-0.7,1.4-0.9c0.5-0.2,1.1-0.3,1.7-0.3c0.6,0,1.1,0.1,1.7,0.3c0.5,0.2,1,0.5,1.4,0.9c0.4,0.4,0.7,0.8,0.9,1.4
				c0.2,0.5,0.3,1.1,0.3,1.7c0,0.6-0.1,1.1-0.3,1.7c-0.2,0.5-0.5,1-0.9,1.4c-0.4,0.4-0.8,0.7-1.4,0.9C75.3,43.4,74.7,43.5,74.1,43.5
				z M72.8,39.3c0,0.2,0,0.4,0.1,0.5c0.1,0.2,0.2,0.3,0.3,0.4c0.1,0.1,0.3,0.2,0.4,0.3s0.3,0.1,0.5,0.1c0.2,0,0.4,0,0.5-0.1
				c0.2-0.1,0.3-0.2,0.4-0.3s0.2-0.3,0.3-0.4c0.1-0.2,0.1-0.3,0.1-0.5c0-0.2,0-0.4-0.1-0.5c-0.1-0.2-0.2-0.3-0.3-0.4
				s-0.3-0.2-0.4-0.3c-0.2-0.1-0.3-0.1-0.5-0.1c-0.2,0-0.4,0-0.5,0.1s-0.3,0.2-0.4,0.3c-0.1,0.1-0.2,0.3-0.3,0.4
				C72.8,38.9,72.8,39.1,72.8,39.3z"/>
			<path class="st0" d="M79.5,38.8c0-0.4,0-0.8,0.1-1.1c0.1-0.3,0.2-0.7,0.4-1c0.2-0.3,0.3-0.6,0.6-0.8c0.2-0.2,0.4-0.5,0.7-0.7
				L81,35c-0.2-0.1-0.3-0.3-0.5-0.5c-0.2-0.2-0.3-0.4-0.4-0.7c-0.1-0.3-0.2-0.5-0.3-0.8c-0.1-0.3-0.1-0.6-0.1-0.9
				c0-0.6,0.1-1.2,0.3-1.7s0.5-1,1-1.4c0.4-0.4,0.9-0.7,1.4-0.9c0.5-0.2,1.1-0.3,1.7-0.3c0.6,0,1.2,0.1,1.7,0.3
				c0.5,0.2,1,0.5,1.4,0.9c0.4,0.4,0.7,0.9,0.9,1.4c0.2,0.5,0.3,1.1,0.3,1.7c0,0.8-0.2,1.5-0.6,2.1s-0.9,1.1-1.6,1.6l1.6,1.4
				l1.4-1.6c0.2-0.2,0.4-0.3,0.6-0.4c0.2-0.1,0.5-0.2,0.7-0.2c0.2,0,0.4,0,0.6,0.1c0.2,0.1,0.3,0.2,0.5,0.4c0.1,0.1,0.2,0.3,0.3,0.5
				c0.1,0.2,0.1,0.4,0.1,0.6c0,0.4-0.1,0.7-0.4,1l-1.5,1.7l1.8,1.5c0.3,0.2,0.4,0.4,0.6,0.7s0.2,0.4,0.2,0.6c0,0.2-0.1,0.4-0.2,0.6
				c-0.1,0.2-0.2,0.3-0.4,0.5c-0.2,0.1-0.3,0.2-0.5,0.3c-0.2,0.1-0.3,0.1-0.5,0.1c-0.3,0-0.7-0.1-1-0.4l-2-1.7l-0.7,0.8
				c-0.1,0.1-0.2,0.2-0.3,0.3c-0.4,0.4-0.9,0.6-1.4,0.8c-0.5,0.2-1.1,0.3-1.7,0.3c-0.6,0-1.3-0.1-1.8-0.4c-0.6-0.3-1.1-0.6-1.5-1
				c-0.4-0.4-0.8-0.9-1-1.5C79.6,40,79.5,39.4,79.5,38.8z M84.1,40.4c0.2,0,0.5,0,0.7-0.1c0.2-0.1,0.5-0.2,0.6-0.4l0.5-0.6l-2.6-2.2
				c-0.3,0.2-0.5,0.4-0.7,0.7c-0.2,0.3-0.2,0.6-0.2,0.9c0,0.2,0,0.5,0.1,0.7c0.1,0.2,0.2,0.4,0.4,0.6c0.2,0.2,0.3,0.3,0.5,0.4
				C83.6,40.4,83.9,40.4,84.1,40.4z M84.1,33.8c0.2-0.1,0.3-0.2,0.5-0.3c0.2-0.1,0.3-0.3,0.5-0.4c0.1-0.2,0.2-0.3,0.3-0.5
				c0.1-0.2,0.1-0.3,0.1-0.5c0-0.2,0-0.4-0.1-0.5s-0.2-0.3-0.3-0.4c-0.1-0.1-0.3-0.2-0.4-0.3c-0.2-0.1-0.4-0.1-0.6-0.1
				c-0.2,0-0.3,0-0.5,0.1c-0.2,0.1-0.3,0.2-0.4,0.3c-0.1,0.1-0.2,0.3-0.3,0.4c-0.1,0.2-0.1,0.3-0.1,0.5c0,0.2,0.1,0.4,0.2,0.7
				c0.1,0.2,0.3,0.4,0.4,0.5l0.1,0.1L84.1,33.8z"/>
			<path class="st0" d="M94.9,29.3c0-0.2,0-0.4,0.1-0.6c0.1-0.2,0.2-0.4,0.3-0.5s0.3-0.3,0.5-0.3c0.2-0.1,0.4-0.1,0.6-0.1
				c0.2,0,0.4,0,0.6,0.1c0.2,0.1,0.4,0.2,0.5,0.3s0.3,0.3,0.3,0.5c0.1,0.2,0.1,0.4,0.1,0.6v8.4c0,0.2,0,0.4-0.1,0.6
				c-0.1,0.2-0.2,0.4-0.3,0.5s-0.3,0.3-0.5,0.3s-0.4,0.1-0.6,0.1s-0.4,0-0.6-0.1s-0.4-0.2-0.5-0.3s-0.2-0.3-0.3-0.5
				c-0.1-0.2-0.1-0.4-0.1-0.6V29.3z M94.9,41.8c0-0.2,0-0.4,0.1-0.6c0.1-0.2,0.2-0.4,0.4-0.5c0.1-0.2,0.3-0.3,0.5-0.4
				s0.4-0.1,0.6-0.1s0.4,0,0.6,0.1s0.4,0.2,0.5,0.4c0.2,0.2,0.3,0.3,0.4,0.5c0.1,0.2,0.1,0.4,0.1,0.6c0,0.2,0,0.4-0.1,0.6
				c-0.1,0.2-0.2,0.4-0.4,0.5c-0.2,0.2-0.3,0.3-0.5,0.4s-0.4,0.1-0.6,0.1s-0.4,0-0.6-0.1s-0.4-0.2-0.5-0.4c-0.1-0.2-0.3-0.3-0.4-0.5
				C94.9,42.2,94.9,42,94.9,41.8z"/>
		</g>
	</g>
	<path class="st1" d="M99,66.3c17.8,0,32.3,14.5,32.3,32.3c0,17.8-14.5,32.3-32.3,32.3c-17.8,0-32.3-14.5-32.3-32.3
		C66.8,80.8,81.2,66.3,99,66.3 M99,62.3c-20,0-36.3,16.2-36.3,36.3S79,134.8,99,134.8c20,0,36.3-16.2,36.3-36.3S119.1,62.3,99,62.3
		L99,62.3z"/>
</g>
</svg>
