<?xml version="1.0" encoding="utf-8"?>
<!-- Generator: Adobe Illustrator 20.1.0, SVG Export Plug-In . SVG Version: 6.00 Build 0)  -->
<svg version="1.1" id="Слой_1" xmlns="http://www.w3.org/2000/svg" xmlns:xlink="http://www.w3.org/1999/xlink" x="0px" y="0px"
	 viewBox="0 0 139.1 135.7" style="enable-background:new 0 0 139.1 135.7;" xml:space="preserve">
<style type="text/css">
	.st0{fill:#7E7C7C;}
	.st1{fill:#CFCFCF;}
</style>
<g>
	<g>
		<circle class="st0" cx="96" cy="111.6" r="2.1"/>
		<path class="st0" d="M83.6,87.8c0.1,0,0.1,0.1,0.2,0.1c0.3,0.2,0.6,0.2,1,0.2c0.8,0,1.4-0.4,1.8-1.1c0.2-0.3,0.4-0.7,0.5-1.2
			c0.1-0.5,0.2-1.1,0.3-1.6c1.1-4.2,4.7-7.1,8.9-7.1c4.1-0.1,7.8,2.6,9,6.5c1.3,4.1,0,7.7-3.8,10.3c-1.6,1.1-3.3,2.1-4.8,3.2
			c-2.3,1.6-2.5,4.2-2.3,6.8c0.1,0.8,0.8,1.8,2,1.8c1,0,2.3-0.4,2.2-2.6c-0.2-3.8,1.7-3.4,3.8-4.6c4.5-2.7,7.9-6.4,7.9-12
			c0-7.6-5.7-13.7-13.1-14c-7.2-0.3-13.8,5.2-14.4,12.4c0,0.2,0,0.8,0,0.9C82.7,86.7,83,87.4,83.6,87.8z"/>
	</g>
	<g>
		<path class="st0" d="M68.7,31.6c-1-1-2.7-1-3.7,0L42.1,54.5c-0.6,0.6-1.7,0.6-2.3,0l-8.9-8.9c-1-1-2.7-1-3.7,0c-1,1-1,2.7,0,3.7
			l8.9,8.9c1.3,1.3,3.1,2,4.9,2s3.5-0.7,4.9-2l22.9-22.9C69.7,34.3,69.7,32.6,68.7,31.6z"/>
		<path class="st1" d="M130.3,111.2c0-0.1,0-0.2,0-0.4c3.5-6.4,5.4-13.6,5.5-20.9c0.2-12-4.4-23.4-12.9-32
			c-4.1-4.2-8.9-7.5-14.3-9.8c-5.1-2.2-10.5-3.4-16-3.6c-0.4-11.3-5-21.9-13.1-29.9c-8.5-8.4-19.7-13-31.6-13h-0.1
			c-6.1,0-12,1.2-17.6,3.6C25,7.5,20.2,10.8,16.1,15C7.6,23.6,3,35,3.2,47c0.1,7.3,2,14.5,5.5,20.9c0.1,0.1,0.1,0.3,0,0.4L3.7,83.7
			c-0.7,2-0.2,4.2,1.2,5.7C6,90.5,7.5,91.1,9,91.1c0.5,0,1-0.1,1.4-0.2l17.4-4.6c0.1,0,0.2,0,0.3,0c5.7,2.8,11.8,4.3,18.2,4.5
			c0.4,11.2,5,21.8,13,29.8c8.5,8.5,19.7,13.2,31.7,13.2c6.9,0,13.6-1.5,19.8-4.6c0.1,0,0.2-0.1,0.3,0l17.4,4.6
			c0.5,0.1,1,0.2,1.4,0.2c1.6,0,3.1-0.6,4.2-1.8c1.4-1.5,1.9-3.7,1.2-5.7L130.3,111.2z M26.6,81.3L9.2,85.9c-0.2,0-0.3,0-0.4-0.1
			c-0.2-0.2-0.1-0.4-0.1-0.4l5.1-15.4c0.5-1.5,0.3-3.2-0.4-4.6c-3.1-5.6-4.8-12-4.9-18.4c-0.2-10.6,3.9-20.6,11.3-28.2
			c7.5-7.6,17.5-11.8,28.1-11.8H48c10.5,0,20.4,4.1,27.9,11.5c7.5,7.4,11.6,17.3,11.6,27.9c0,10.5-4.1,20.4-11.6,27.9
			c-7.5,7.5-17.4,11.6-28,11.6c-6.1,0-12-1.4-17.4-4C29.3,81.1,27.9,81,26.6,81.3z M130.4,128.7c-0.1,0.1-0.3,0.2-0.4,0.1l-17.4-4.6
			c-1.3-0.3-2.7-0.2-4,0.4c-5.5,2.7-11.3,4-17.4,4c-10.5,0-20.5-4.1-28-11.6C56.1,110,52,100.7,51.6,90.8c10.6-0.9,20.4-5.4,28-13
			c7.6-7.6,12.1-17.5,12.9-28c10.1,0.4,19.5,4.5,26.7,11.8c7.5,7.6,11.5,17.6,11.3,28.2c-0.1,6.4-1.8,12.8-4.9,18.4
			c-0.8,1.4-0.9,3.1-0.4,4.6l5.1,15.4C130.5,128.3,130.5,128.5,130.4,128.7z"/>
	</g>
</g>
</svg>
