<?xml version="1.0" encoding="utf-8"?>
<!-- Generator: Adobe Illustrator 20.1.0, SVG Export Plug-In . SVG Version: 6.00 Build 0)  -->
<svg version="1.1" id="Слой_1" xmlns="http://www.w3.org/2000/svg" xmlns:xlink="http://www.w3.org/1999/xlink" x="0px" y="0px"
	 viewBox="0 0 115.5 135.7" style="enable-background:new 0 0 115.5 135.7;" xml:space="preserve">
<style type="text/css">
	.st0{fill:#E60028;}
</style>
<g>
	<path class="st0" d="M79.6,38.7c-1-0.5-2.2-0.1-2.7,0.8c-0.5,1-0.1,2.2,0.8,2.7c13.4,7.1,21.9,20.6,22.6,35.6H86.7
		c-1.1,0-2,0.9-2,2c0,1.1,0.9,2,2,2h13.7c-1,22.7-19.7,40.8-42.6,40.8c-23.5,0-42.6-19.1-42.6-42.6c0-22.9,18.1-41.6,40.8-42.6v21.2
		h-3.4c-2.9,0-5.3,2.1-5.8,4.9l-2.3,13.7c-0.4,2.2,0.5,4.4,2.3,5.7c1.6,1.2,4.3,1.5,6.3,0.4c0.9-0.4,1.5-0.7,3.5-0.7
		c0.9,0,1.8,0.4,2.5,1.1c0.7,0.7,1,1.6,0.9,2.5c-0.1,1.8-1.6,3.2-3.3,3.2c-1,0-2-0.4-2.6-1.2c-1.9-2.2-5.9-2.8-8.4-0.4
		c-2.4,2.2-2.5,5.9-0.3,8.4c2.8,3.2,7.3,5.1,11.6,5c7.9-0.2,14.5-6.5,14.9-14.4c0.1-1.8-0.1-3.5-0.6-5.1c0,0-0.5-1.4-0.7-2
		c-0.2-0.5-1.1-1.9-1.1-1.9c-0.5-0.8-1.1-1.5-1.8-2.2c-2.7-2.8-6.3-4.5-10.2-4.7l0.1-0.5H64c3,0,6.1-2.7,5.9-6.2
		c-0.1-3.2-2.8-5.6-6-5.6h-4V37.3c3.7,0.2,7.3,0.8,10.8,1.9c1,0.3,2.1-0.2,2.5-1.3c0.3-1-0.2-2.1-1.3-2.5c-4.5-1.4-9.3-2.2-14.1-2.2
		c-25.7,0-46.6,20.9-46.6,46.6c0,25.7,20.9,46.6,46.6,46.6s46.6-20.9,46.6-46.6C104.3,62.6,94.8,46.9,79.6,38.7z M63.9,62.5
		c1.1,0,2,0.8,2.1,1.9h0c0,0.8-0.6,2-2,2.1h-7.7c-1.2,0-2.3,0.9-2.5,2.1l-0.6,3.4c-0.1,0.7,0.1,1.5,0.6,2c0.5,0.6,1.2,0.9,2,0.9
		c0.3,0,0.5,0,0.8,0c3.1,0,6.1,1.3,8.2,3.5c2.2,2.3,3.3,5.2,3.1,8.4c-0.3,5.9-5.2,10.6-11,10.7c-3,0.1-6.5-1.3-8.6-3.7
		c-0.7-0.8-0.7-2.1,0.1-2.8c0.4-0.4,1.9-0.9,2.8,0.1c1.4,1.6,3.5,2.6,5.7,2.5c3.8-0.1,7-3.1,7.2-7c0.1-2-0.6-4-2-5.5
		c-1.4-1.5-3.3-2.3-5.3-2.3c-2.7,0-3.8,0.4-5.1,1c-0.6,0.3-1.4,0.5-2.4,0c-0.6-0.4-0.9-1.2-0.8-1.9l2.3-13.7c0.2-1,1-1.6,1.9-1.6
		H63.9z"/>
	<circle class="st0" cx="41.4" cy="51.5" r="2"/>
	<circle class="st0" cx="74.2" cy="51.5" r="2"/>
	<circle class="st0" cx="86.2" cy="63.5" r="2"/>
	<circle class="st0" cx="29.6" cy="63.5" r="2"/>
	<circle class="st0" cx="25.5" cy="79.8" r="2"/>
	<circle class="st0" cx="29.6" cy="96.4" r="2"/>
	<circle class="st0" cx="41.4" cy="108.3" r="2"/>
	<circle class="st0" cx="57.9" cy="112.6" r="2"/>
	<circle class="st0" cx="86.2" cy="96.4" r="2"/>
	<circle class="st0" cx="74.2" cy="108.3" r="2"/>
	<path class="st0" d="M112.8,76.9c0-0.3,0-0.6-0.1-0.9c0-0.7-0.1-1.4-0.2-2.1c0-0.3-0.1-0.6-0.1-0.9c-0.1-0.7-0.2-1.4-0.3-2
		c0-0.3-0.1-0.6-0.2-0.9c-0.1-0.7-0.3-1.4-0.4-2.1c-0.1-0.2-0.1-0.5-0.2-0.7c-0.2-0.7-0.4-1.5-0.6-2.2c-0.1-0.2-0.1-0.4-0.2-0.6
		c-0.2-0.8-0.5-1.6-0.8-2.4c0-0.1-0.1-0.2-0.1-0.3c-3.2-9.3-8.9-17.5-16.3-23.8l2.4-3.4c0.8,0.5,1.7,0.7,2.5,0.7
		c1.6,0,3.2-0.8,4.2-2.2l3.8-5.4c1.6-2.3,1.1-5.5-1.3-7.1l-9-6.3c-2.3-1.6-5.5-1.1-7.1,1.3l-3.8,5.4c-1.5,2.2-1.1,5.2,0.9,6.8
		l-2.5,3.6c-4.4-2.3-9.1-4.1-14-5.2c-0.1,0-0.2-0.1-0.3-0.1c-0.7-0.1-1.3-0.3-2-0.4c-0.2,0-0.5-0.1-0.7-0.1
		c-0.6-0.1-1.2-0.2-1.8-0.3c-0.2,0-0.4-0.1-0.6-0.1v-4.5c2.3-0.5,3.9-2.6,3.9-5v-10c0-2.8-2.3-5.1-5.1-5.1H52.4
		c-2.8,0-5.1,2.3-5.1,5.1v10c0,2.4,1.7,4.4,3.9,5v4.5c-0.3,0-0.5,0.1-0.8,0.1c-0.5,0.1-1,0.1-1.5,0.2c-0.4,0.1-0.8,0.1-1.1,0.2
		c-0.5,0.1-1,0.2-1.5,0.3c-0.4,0.1-0.8,0.2-1.1,0.3c-0.5,0.1-0.9,0.2-1.4,0.3c-0.4,0.1-0.9,0.2-1.3,0.4c-0.4,0.1-0.8,0.2-1.2,0.3
		c-0.7,0.2-1.4,0.5-2.1,0.7c-0.1,0-0.2,0.1-0.3,0.1c-2.4,0.9-4.8,1.9-7.1,3.2l-2.5-3.6c2-1.7,2.4-4.7,0.9-6.8l-3.8-5.4
		c-1.6-2.3-4.8-2.9-7.1-1.3l-9,6.3C8,22.2,7.4,25.4,9,27.7l3.8,5.4c1,1.4,2.6,2.2,4.2,2.2c0.9,0,1.7-0.2,2.5-0.7l2.4,3.5
		c-3.6,3.1-6.8,6.7-9.5,10.6c-0.1,0.2-0.3,0.4-0.4,0.6c-0.3,0.5-0.7,1-1,1.5c-0.2,0.4-0.5,0.7-0.7,1.1c-0.3,0.4-0.5,0.9-0.7,1.3
		c-0.3,0.5-0.6,1.1-0.8,1.6c-0.2,0.3-0.3,0.6-0.5,1c-0.4,0.9-0.9,1.8-1.2,2.7l0,0c0,0,0,0,0,0c-1,2.5-1.9,5.1-2.6,7.7c0,0,0,0,0,0
		c0,0.1,0,0.2-0.1,0.3c-0.2,0.9-0.4,1.8-0.6,2.7c-0.1,0.3-0.1,0.6-0.2,1c-0.1,0.7-0.2,1.5-0.3,2.2c0,0.3-0.1,0.7-0.1,1
		C3,74.3,2.9,75,2.9,75.8c0,0.3-0.1,0.6-0.1,0.9c-0.1,1.1-0.1,2.1-0.1,3.2c0,30.4,24.7,55.1,55.1,55.1s55.1-24.7,55.1-55.1
		C112.9,78.9,112.8,77.9,112.8,76.9z M57.8,131c-28.2,0-51.1-22.9-51.1-51.1s22.9-51.1,51.1-51.1s51.1,22.9,51.1,51.1
		S86,131,57.8,131z M88.5,23.2l3.8-5.4c0.2-0.3,0.5-0.4,0.8-0.5c0.1,0,0.1,0,0.2,0c0.2,0,0.5,0.1,0.7,0.2l9,6.3
		c0.5,0.4,0.7,1.1,0.3,1.6l-3.8,5.4c-0.4,0.5-1.1,0.7-1.6,0.3c-0.8-0.6-8.6-6-9-6.3c-0.3-0.2-0.4-0.5-0.5-0.8
		C88.3,23.7,88.4,23.4,88.5,23.2z M89.4,30l3.3,2.3l-2.3,3.2c-1.1-0.8-2.2-1.6-3.3-2.3L89.4,30z M51.2,5.8c0-0.7,0.5-1.2,1.2-1.2
		h10.8c0.7,0,1.2,0.5,1.2,1.2v10c0,0.7-0.5,1.2-1.2,1.2H52.4c-0.7,0-1.2-0.5-1.2-1.2V5.8z M55.2,24.9v-4h5.2v4
		c-0.8,0-1.7-0.1-2.6-0.1c0,0,0,0-0.1,0c0,0,0,0-0.1,0C56.9,24.8,56,24.8,55.2,24.9z M25,35.6l-2.3-3.2L26,30l2.3,3.3
		C27.2,34,26.1,34.8,25,35.6z M17.6,31.1c-0.5,0.4-1.3,0.2-1.6-0.3l-3.8-5.4c-0.4-0.5-0.2-1.3,0.3-1.6l9-6.3
		c0.2-0.1,0.4-0.2,0.7-0.2c0.1,0,0.1,0,0.2,0c0.3,0.1,0.6,0.2,0.8,0.5l3.8,5.4c0.2,0.3,0.2,0.6,0.2,0.9c-0.1,0.3-0.2,0.6-0.5,0.8
		C25.9,25.3,18.5,30.5,17.6,31.1z"/>
</g>
</svg>
