<?xml version="1.0" encoding="utf-8"?>
<!-- Generator: Adobe Illustrator 20.1.0, SVG Export Plug-In . SVG Version: 6.00 Build 0)  -->
<svg version="1.1" id="Слой_1" xmlns="http://www.w3.org/2000/svg" xmlns:xlink="http://www.w3.org/1999/xlink" x="0px" y="0px"
	 viewBox="0 0 113.5 131.5" style="enable-background:new 0 0 113.5 131.5;" xml:space="preserve">
<style type="text/css">
	.st0{fill:#E60028;}
</style>
<g>
	<g>
		<path class="st0" d="M68.9,1.2C45,1.2,25.6,20.6,25.6,44.5c0,7.2,1.8,13.9,4.8,19.9c0.5-0.3,1-0.5,1.6-0.7
			c0.7-0.2,2.2-0.4,2.8-0.5c-3-5.6-5.5-11.9-5.5-18.7C29.3,22.7,47,5,68.9,5c21.8,0,39.6,17.8,39.6,39.6S90.7,84.1,68.9,84.1
			c0,0,0,0-0.1,0c-0.3,0.8-0.7,1.6-1.3,2.3l-1.1,1.3c0.8,0,1.6,0.1,2.4,0.1c23.9,0,43.3-19.4,43.3-43.3
			C112.2,20.6,92.8,1.2,68.9,1.2z"/>
	</g>
	<path class="st0" d="M71.5,63.6c-4.4-2.3-8.8-1.7-12.4,1.7C55.3,68.9,52,73,48.7,76.7c-6.1-3.2-10.9-8.2-14.3-14.1
		c-0.5,0.1-1.1,0.2-1.8,0.2c-1.1,0-2.1-0.2-2.9-0.6c0.1,0.2,0.2,0.4,0.3,0.6c-8.6,1.3-13.6,5-15.7,11.7l0,0
		C11.4,81.2,4.9,99.6,1.9,107l0,0l0,0l0,0c-0.4,0.9-0.2,1.9,0.5,2.7l19.1,20c0.9,1,2.5,1,3.5,0.1c0.2-0.2,0.4-0.4,0.5-0.7l0,0
		c2.5-4.1,4.3-6.1,9.7-6c13.3,0.1,22.5-8.8,23.9-22.1c0.8-7.3,15.1-13.8,14.2-14.2c-0.9-0.4,0.5-2.6,0.3-2.6
		c1.2-3.2,3.6-7.5,3.9-10.6C77.9,69.2,75.5,65.6,71.5,63.6z M71.1,79.3c-2.3,2.4-4.5,4.9-7,7c-5.3,4.5-8.6,9.6-9.3,17
		c-0.8,9-8.7,15.8-18,16.1c-5.6,0.2-10.4,1.6-13.3,6.2c-1.5-1.5-4-4.2-5.4-5.6L5.9,107.2c2.3-6.3,9.4-23.1,11.4-29.1l0,0
		c0.8-1.9,1.3-3.9,2.2-5.7c2.7-5.1,10.4-7.4,13.9-4.1c3.7,3.6,7.1,7.6,11.2,12c-1.9,1.6-3.9,3.1-5.6,4.9c-0.9,1-2.8,3-1.7,4.1
		s3.3-0.7,4.4-1.7c6.4-6.2,12.6-12.6,19-18.8c3.6-3.5,7.9-3.5,11-0.4C74.7,71.4,74.6,75.6,71.1,79.3z"/>
	<g>
		<path class="st0" d="M77.2,41.2l11.6-11.6c1.8-1.8,1.8-4.7,0-6.5L87.7,22c-0.9-0.9-2-1.3-3.3-1.3c-1.2,0-2.4,0.5-3.3,1.3
			L69.6,33.6L58,22c-0.9-0.9-2-1.3-3.3-1.3s-2.4,0.5-3.3,1.3l-1.1,1.1c-1.8,1.8-1.8,4.7,0,6.5L62,41.2L50.4,52.8
			c-0.9,0.9-1.3,2-1.3,3.3s0.5,2.4,1.3,3.3l1.1,1.1c0.9,0.9,2.1,1.3,3.3,1.3s2.4-0.4,3.3-1.3l11.6-11.6l11.6,11.6
			c0.9,0.9,2.1,1.3,3.3,1.3c1.2,0,2.4-0.4,3.3-1.3l1.1-1.1c0.9-0.9,1.3-2,1.3-3.3s-0.5-2.4-1.3-3.3L77.2,41.2z M86.8,57.3l-1.1,1.1
			c-0.7,0.7-1.7,0.7-2.4,0L71.7,46.8l-2.1-2.1l-2.1,2.1L55.9,58.4c-0.7,0.7-1.7,0.7-2.4,0l-1.1-1.1c-0.3-0.3-0.5-0.7-0.5-1.2
			s0.2-0.9,0.5-1.2L64,43.3l2.1-2.1L64,39.1L52.4,27.5c-0.7-0.7-0.7-1.7,0-2.4l1.1-1.1c0.3-0.3,0.7-0.5,1.2-0.5s0.9,0.2,1.2,0.5
			l11.6,11.6l2.1,2.1l2.1-2.1L83.3,24c0.3-0.3,0.7-0.5,1.2-0.5s0.9,0.2,1.2,0.5l1.1,1.1c0.7,0.7,0.7,1.7,0,2.4L75.2,39.2l-2.1,2.1
			l2.1,2.1L86.8,55c0.3,0.3,0.5,0.7,0.5,1.2C87.3,56.6,87.1,57,86.8,57.3z"/>
	</g>
</g>
</svg>
