<?xml version="1.0" encoding="utf-8"?>
<!-- Generator: Adobe Illustrator 24.1.1, SVG Export Plug-In . SVG Version: 6.00 Build 0)  -->
<svg version="1.1" id="Слой_1" xmlns="http://www.w3.org/2000/svg" xmlns:xlink="http://www.w3.org/1999/xlink" x="0px" y="0px"
	 viewBox="0 0 89 90" style="enable-background:new 0 0 89 90;" xml:space="preserve">
<style type="text/css">
	.st0{fill:#E60028;}
</style>
<g>
	<g>
		<path class="st0" d="M38.4,49c0.8,0.8,1.7,1.4,2.7,1.8c1,0.4,2.1,0.7,3.3,0.7h1c1.1,0,2.2-0.2,3.3-0.7c1-0.4,1.9-1,2.7-1.8
			c0.8-0.8,1.4-1.7,1.8-2.7c0.4-1,0.7-2.1,0.7-3.3V28.7c0-1.1-0.2-2.2-0.7-3.3c-0.4-1-1-1.9-1.8-2.7c-0.8-0.8-1.7-1.4-2.7-1.8
			c-1-0.4-2.1-0.7-3.3-0.7h-1c-1.1,0-2.2,0.2-3.3,0.7c-1,0.4-1.9,1-2.7,1.8c-0.8,0.8-1.4,1.7-1.8,2.7c-0.4,1-0.7,2.1-0.7,3.3v14.4
			c0,1.1,0.2,2.2,0.7,3.3C37.1,47.3,37.7,48.2,38.4,49z M39.3,28.7c0-2.8,2.2-5,5-5h1c2.8,0,5,2.2,5,5v14.4c0,2.8-2.2,5-5,5h-1
			c-2.8,0-5-2.2-5-5V28.7z"/>
		<path class="st0" d="M45.4,51.5h-1c-1.1,0-2.2-0.2-3.3-0.7c-1-0.4-1.9-1-2.7-1.8c-0.8-0.8-1.4-1.7-1.8-2.7c-0.4-1-0.7-2.1-0.7-3.3
			V28.7c0-1.1,0.2-2.2,0.7-3.3c0.4-1,1-1.9,1.8-2.7c0.8-0.8,1.7-1.4,2.7-1.8c1-0.4,2.1-0.7,3.3-0.7h1c1.1,0,2.2,0.2,3.3,0.7
			c1,0.4,1.9,1,2.7,1.8c0.8,0.8,1.4,1.7,1.8,2.7c0.4,1,0.7,2.1,0.7,3.3v14.4c0,1.1-0.2,2.2-0.7,3.3c-0.4,1-1,1.9-1.8,2.7
			c-0.8,0.8-1.7,1.4-2.7,1.8C47.6,51.3,46.5,51.5,45.4,51.5z M44.3,20.4c-1.1,0-2.2,0.2-3.2,0.7c-1,0.4-1.9,1-2.6,1.8
			c-0.8,0.8-1.4,1.7-1.8,2.6c-0.4,1-0.7,2.1-0.7,3.2v14.4c0,1.1,0.2,2.2,0.7,3.2c0.4,1,1,1.9,1.8,2.6s1.7,1.4,2.6,1.8
			c1,0.4,2.1,0.7,3.2,0.7h1c1.1,0,2.2-0.2,3.2-0.7c1-0.4,1.9-1,2.6-1.8c0.8-0.8,1.4-1.7,1.8-2.6c0.4-1,0.7-2.1,0.7-3.2V28.7
			c0-1.1-0.2-2.2-0.7-3.2c-0.4-1-1-1.9-1.8-2.6s-1.7-1.4-2.6-1.8c-1-0.4-2.1-0.7-3.2-0.7H44.3z M45.4,48.1h-1c-2.8,0-5-2.3-5-5V28.7
			c0-2.8,2.3-5,5-5h1c2.8,0,5,2.3,5,5v14.4C50.4,45.9,48.2,48.1,45.4,48.1z M44.3,23.7c-2.7,0-5,2.2-5,5v14.4c0,2.7,2.2,5,5,5h1
			c2.7,0,5-2.2,5-5V28.7c0-2.7-2.2-5-5-5H44.3z"/>
	</g>
	<g>
		<path class="st0" d="M51,58.4c1.9-0.8,3.5-1.9,5-3.4c1.4-1.4,2.6-3.1,3.4-5c0.8-1.9,1.2-4,1.2-6.1v-1c0-0.9-0.8-1.7-1.7-1.7
			s-1.7,0.8-1.7,1.7v1c0,3.3-1.3,6.4-3.6,8.7c-2.3,2.3-5.4,3.6-8.7,3.6c-3.3,0-6.4-1.3-8.7-3.6c-2.3-2.3-3.6-5.4-3.6-8.7v-1
			c0-0.9-0.8-1.7-1.7-1.7s-1.7,0.8-1.7,1.7v1c0,2.1,0.4,4.2,1.2,6.1c0.8,1.9,1.9,3.5,3.4,5c1.4,1.4,3.1,2.6,5,3.4
			c1.4,0.6,2.9,1,4.4,1.1v5.3h-3.8c-0.9,0-1.7,0.8-1.7,1.7c0,0.9,0.8,1.7,1.7,1.7h5.5h5.5c0.9,0,1.7-0.8,1.7-1.7
			c0-0.9-0.8-1.7-1.7-1.7h-3.8v-5.3C48.1,59.4,49.5,59,51,58.4z"/>
		<path class="st0" d="M50.4,68.3h-11c-0.9,0-1.7-0.8-1.7-1.7c0-0.9,0.8-1.7,1.7-1.7h3.8v-5.3c-1.5-0.2-3-0.5-4.4-1.1
			c-1.9-0.8-3.6-1.9-5-3.4c-1.4-1.4-2.6-3.1-3.4-5c-0.8-1.9-1.2-4-1.2-6.1v-1c0-0.9,0.8-1.7,1.7-1.7c0.9,0,1.7,0.8,1.7,1.7v1
			c0,3.3,1.3,6.4,3.6,8.7c2.3,2.3,5.4,3.6,8.7,3.6c3.3,0,6.4-1.3,8.7-3.6c2.3-2.3,3.6-5.4,3.6-8.7v-1c0-0.9,0.8-1.7,1.7-1.7
			s1.7,0.8,1.7,1.7v1c0,2.1-0.4,4.2-1.2,6.1c-0.8,1.9-1.9,3.6-3.4,5c-1.4,1.4-3.1,2.6-5,3.4c-1.4,0.6-2.9,1-4.4,1.1v5.3h3.8
			c0.9,0,1.7,0.8,1.7,1.7S51.3,68.3,50.4,68.3z M39.3,64.9c-0.9,0-1.6,0.7-1.6,1.6c0,0.9,0.7,1.6,1.6,1.6h11c0.9,0,1.6-0.7,1.6-1.6
			c0-0.9-0.7-1.6-1.6-1.6h-3.9v-5.4l0,0c1.5-0.2,3-0.5,4.4-1.1c1.9-0.8,3.5-1.9,5-3.4c1.4-1.4,2.6-3.1,3.4-5c0.8-1.9,1.2-4,1.2-6.1
			v-1c0-0.9-0.7-1.6-1.6-1.6c-0.9,0-1.6,0.7-1.6,1.6v1c0,3.3-1.3,6.4-3.6,8.7c-2.3,2.3-5.4,3.6-8.7,3.6c-3.3,0-6.4-1.3-8.7-3.6
			c-2.3-2.3-3.6-5.4-3.6-8.7v-1c0-0.9-0.7-1.6-1.6-1.6c-0.9,0-1.6,0.7-1.6,1.6v1c0,2.1,0.4,4.2,1.2,6.1c0.8,1.9,1.9,3.5,3.4,5
			c1.4,1.4,3.1,2.6,5,3.4c1.4,0.6,2.9,1,4.4,1.1l0,0v5.4H39.3z"/>
	</g>
	<path class="st0" d="M44.9,87.6c-23.4,0-42.5-19-42.5-42.5c0-6.3,1.3-12.3,3.9-17.9c0.4-0.9,1.5-1.3,2.4-0.9
		c0.9,0.4,1.3,1.5,0.9,2.4c-2.4,5.2-3.6,10.7-3.6,16.4c0,21.5,17.5,38.9,38.9,38.9s38.9-17.5,38.9-38.9S66.3,6.2,44.9,6.2
		c-10.6,0-20.5,4.2-27.9,11.8c-0.7,0.7-1.8,0.7-2.5,0c-0.7-0.7-0.7-1.8,0-2.5C22.5,7.3,33.3,2.7,44.9,2.7c23.4,0,42.5,19,42.5,42.4
		S68.3,87.6,44.9,87.6z"/>
</g>
</svg>
