<?xml version="1.0" encoding="utf-8"?>
<!-- Generator: Adobe Illustrator 24.1.1, SVG Export Plug-In . SVG Version: 6.00 Build 0)  -->
<svg version="1.1" id="Слой_1" xmlns="http://www.w3.org/2000/svg" xmlns:xlink="http://www.w3.org/1999/xlink" x="0px" y="0px"
	 viewBox="0 0 68 84" style="enable-background:new 0 0 68 84;" xml:space="preserve">
<style type="text/css">
	.st0{fill:none;stroke:#B0AFAD;stroke-width:0.75;stroke-linejoin:bevel;stroke-miterlimit:10;}
</style>
<path class="st0" d="M36.9,7.9c0-2.8-2.3-5.1-5.1-5.1h-0.4c-3.6,0-6.5,2.9-6.5,6.5L24.6,18L24,37.3c-0.1,0.6-0.2,14-0.2,14
	c-1.1-1.2-2.4-2.5-3.5-3.8c-2.7-3-7.5-5-10.8-5.3c-1.7-0.2-3,0-3.9,0.7c-0.3,0.2-0.5,0.4-0.8,0.7c-1.7,1.6-2.9,4.3-1.8,6.3
	c0.5,0.9,1.4,1.4,2.3,2c1.2,0.8,3.3,1.6,4.8,3.6c2.6,3.3,8.6,10.7,12.3,14.7c0.8,0.5,2.4,2.1,3.2,2.5c2.3,1.5,4.2,2.9,4.9,3.6
	C31,77,34,78.5,34,78.5c2.5,1.6,6.9,3,12.1,3c5.2,0,9.9,0.3,13.3-2.7h0.2l0.1-0.2c3.5-3.2,5.7-7.7,5.7-12.7c0-1.2,0-5.7,0-6.6V42.3
	c0-1.2-0.3-5-3.5-6.2c-1.6-0.6-3.1-0.3-4.3,0.2l-0.3,0l-0.1,0c-0.6-2.1-2-3.5-4.1-3.9c-2.5-0.4-4.3,0.3-5.3,1.1
	c-1-2.3-3.2-3.4-6-3.2c-2.1,0.2-3.7,1.2-4.9,2.6V18.3V7.9z"/>
</svg>
