<?xml version="1.0" encoding="utf-8"?>
<!-- Generator: Adobe Illustrator 20.1.0, SVG Export Plug-In . SVG Version: 6.00 Build 0)  -->
<svg version="1.1" id="Слой_1" xmlns="http://www.w3.org/2000/svg" xmlns:xlink="http://www.w3.org/1999/xlink" x="0px" y="0px"
	 viewBox="0 0 64.5 80.2" style="enable-background:new 0 0 64.5 80.2;" xml:space="preserve">
<style type="text/css">
	.st0{fill:#FFFFFF;stroke:#ADACAB;stroke-width:0.75;stroke-linejoin:bevel;stroke-miterlimit:10;}
</style>
<g>
	<path class="st0" d="M35.2,5.5c-0.2-2.9-2.8-4.6-5.3-4.8h-0.4c-3.6,0-6.5,2.9-6.5,6.5l-0.3,8.8l-0.5,19.3c-0.2,0.6-0.2,14-0.2,14
		c-1.1-1.2-2.4-2.5-3.5-3.8c-2.7-3-7.5-5-10.8-5.3c-1.7-0.2-3,0-3.9,0.7c-0.3,0.2-0.5,0.4-0.8,0.7c-1.7,1.7-3,4.4-1.8,6.3
		c0.5,0.9,1.4,1.4,2.3,2c1.2,0.8,3.3,1.6,4.8,3.6c2.6,3.3,8.6,10.7,12.3,14.7c0.8,0.5,2.4,2.1,3.2,2.5c2.3,1.5,4.2,2.9,4.9,3.6
		c0.5,0.6,3.6,2.1,3.6,2.1c2.5,1.6,6.9,3,12.1,3s9.9,0.3,13.3-2.7h0.2l0.1-0.2c3.5-3.2,5.7-7.7,5.7-12.7c0-1.2,0-5.7,0-6.6v-17
		c0-1.2-0.3-5-3.5-6.2c-1.6-0.6-3.1-0.3-4.3,0.2h-0.3h-0.1c-0.6-2.1-2-3.5-4.1-3.9c-2.5-0.4-4.3,0.3-5.3,1.1c-1-2.3-3.2-3.4-6-3.2
		c-2.1,0.2-3.7,1.2-4.9,2.6V16.4V5.9L35.2,5.5z"/>
</g>
</svg>
